<svg width="1000" height="360" viewBox="0 0 1000 360" fill="none" xmlns="http://www.w3.org/2000/svg">
<path d="M519.976 297.203H408.238V360H519.976V297.203Z" fill="#F1F4F6"/>
<path d="M520.588 360C619.9 360 700.408 279.411 700.408 180C700.408 80.5887 619.9 0 520.588 0C421.276 0 340.768 80.5887 340.768 180C340.768 279.411 421.276 360 520.588 360Z" fill="#F1F4F6"/>
<path d="M450.576 360H378.655C344.865 360 320.489 327.376 330.288 295.005C330.355 294.778 330.431 294.543 330.498 294.317H442.118L450.576 360Z" fill="#0078C8"/>
<path d="M707.39 250.265H544.636C541.686 250.265 539.297 247.873 539.297 244.92V93.9017C539.297 90.9482 541.686 88.5568 544.636 88.5568H707.39C710.341 88.5568 712.73 90.9482 712.73 93.9017V244.92C712.73 247.865 710.341 250.265 707.39 250.265Z" fill="#DAE5ED"/>
<path d="M707.39 246.69H544.636C541.686 246.69 539.297 244.299 539.297 241.345V90.3273C539.297 87.3737 541.686 84.9823 544.636 84.9823H707.39C710.341 84.9823 712.73 87.3737 712.73 90.3273V241.337C712.73 244.29 710.341 246.69 707.39 246.69Z" fill="#DAE5ED"/>
<path d="M697.632 88.5484H554.385V246.682H697.632V88.5484Z" fill="white"/>
<path d="M415.006 152.552C423.339 152.167 429.429 137.444 428.608 119.668C427.786 101.893 420.365 87.7959 412.032 88.1817C403.699 88.5675 397.609 103.29 398.43 121.066C399.252 138.841 406.673 152.938 415.006 152.552Z" fill="#371F38"/>
<path d="M348.932 151.622C348.597 151.463 348.27 151.303 347.943 151.144C341.338 147.872 339.309 139.414 343.727 133.515C352.394 121.961 359.126 106.983 357.742 82.0287L398.741 75.8363L403.058 112.06C406.612 141.864 376.033 164.485 348.932 151.622Z" fill="#371F38"/>
<path d="M381.9 108.779C395.33 108.779 406.217 97.8805 406.217 84.4369C406.217 70.9933 395.33 60.0951 381.9 60.0951C368.469 60.0951 357.582 70.9933 357.582 84.4369C357.582 97.8805 368.469 108.779 381.9 108.779Z" fill="#371F38"/>
<path d="M413.025 101.739C422.27 101.739 429.765 94.2367 429.765 84.9823C429.765 75.728 422.27 68.2258 413.025 68.2258C403.78 68.2258 396.285 75.728 396.285 84.9823C396.285 94.2367 403.78 101.739 413.025 101.739Z" fill="#371F38"/>
<path d="M373.645 151.622H420.963V143.45C420.963 140.488 418.566 138.088 415.607 138.088H379.001C376.042 138.088 373.645 140.488 373.645 143.45V151.622Z" fill="#0078C8"/>
<path d="M412.715 106.563L383.712 106.203L379.219 164.519L414.727 164.494L412.715 106.563Z" fill="#6D2C00"/>
<path d="M376.285 106.798L371.683 86.5849C369.579 77.3383 384.249 66.019 396.554 63.2165L397.418 63.0151C407.074 60.8167 413.654 67.286 415.75 76.5327L421.542 101.982C423.68 111.371 423.981 121.466 416.94 128.464C414.325 131.065 397.309 135.252 392.816 133.968C385.548 131.895 382.161 124.939 379.412 118.244C378.725 116.565 376.721 108.728 376.285 106.798Z" fill="#BA5602"/>
<path d="M377.912 114.459C381.986 114.459 385.288 111.153 385.288 107.075C385.288 102.997 381.986 99.6914 377.912 99.6914C373.838 99.6914 370.535 102.997 370.535 107.075C370.535 111.153 373.838 114.459 377.912 114.459Z" fill="#BA5602"/>
<path d="M423.698 89.8406L413.069 91.4432C411.241 91.7201 409.498 90.4615 409.104 88.5819L407.771 82.2469L404.183 91.0405C403.714 92.1984 402.7 93.0123 401.501 93.1885L397.662 93.7675C395.826 94.0444 394.091 92.7857 393.697 90.8978L392.205 83.7656L389.371 92.9787C388.969 94.2877 387.888 95.2359 386.58 95.4372L371.978 101.445L368.088 73.1344C367.284 68.1922 370.494 63.5689 375.247 62.8221L410.177 57.3345C414.971 56.5793 419.464 60.0699 420.16 65.0708L423.698 89.8406Z" fill="#371F38"/>
<path opacity="0.1" d="M586.038 135.134L590.531 135.78L590.565 160.844C588.184 164.125 584.806 166.726 580.665 168.102L559.072 175.276C547.689 179.731 536.179 183.583 524.595 186.998C512.725 190.489 500.78 193.526 488.768 196.194C476.748 198.837 464.677 201.128 452.489 203.066C440.276 205.005 428.079 206.591 415.204 207.597L413.955 158.469C424.785 158.746 436.252 158.486 447.619 157.857C459.019 157.236 470.436 156.271 481.811 154.979C504.452 152.335 526.942 148.4 548.535 142.409L548.527 142.367L577.723 135.478C578.695 135.117 579.676 134.882 580.64 134.748C580.799 134.715 580.967 134.698 581.134 134.681C582.844 134.497 584.504 134.656 586.038 135.134Z" fill="#1E323E"/>
<rect opacity="0.1" x="588.73" y="138.885" width="49.4564" height="15.9426" rx="2" fill="#1E323E"/>
<path d="M380.544 153.787H426.329C434.72 154.442 442.364 159.073 446.598 166.356C450.051 172.289 451.719 179.295 450.797 184.993L465.466 287.78H344.877L330.962 178.322C329.83 169.402 335.798 161.129 344.617 159.401L363.871 155.474C369.362 154.349 374.944 153.787 380.544 153.787Z" fill="#028DDE"/>
<path d="M385.674 286.379L338.414 287.78L333.158 191.177L371.374 188.349L355.682 242.948L385.674 286.379Z" fill="#006AA5"/>
<path d="M479.824 242.839H321.522C320.046 242.839 318.848 244.039 318.848 245.516V257.338H482.498V245.516C482.498 244.039 481.299 242.839 479.824 242.839Z" fill="#99A8B7"/>
<path d="M478.432 246.715H322.904V257.33H478.432V246.715Z" fill="#441903"/>
<path d="M468.718 211.471L446.818 209.722L440.362 290.761L462.262 292.509L468.718 211.471Z" fill="#9DDAF3"/>
<path d="M397.91 292.404L387.222 299.334C385.085 300.727 382.218 300.115 380.835 297.967L345.31 243.082C343.919 240.943 344.531 238.073 346.677 236.688L357.364 229.758C359.502 228.365 362.369 228.977 363.752 231.125L399.276 286.01C400.668 288.158 400.056 291.019 397.91 292.404Z" fill="#13B5EA"/>
<path d="M378.959 216.597L357.652 221.961L375.84 294.352L397.147 288.988L378.959 216.597Z" fill="#F1F4F6"/>
<path d="M461.987 249.585L455.113 251.33L458.684 268.59" stroke="white" stroke-width="2.8404" stroke-miterlimit="10"/>
<path d="M404.568 293.637C424.41 293.637 440.495 277.536 440.495 257.674C440.495 237.812 424.41 221.711 404.568 221.711C384.726 221.711 368.641 237.812 368.641 257.674C368.641 277.536 384.726 293.637 404.568 293.637Z" fill="white"/>
<path d="M437.947 244.383L404.686 257.724L418.014 291.027C436.346 283.618 445.257 262.776 437.947 244.383Z" fill="#FDCC08"/>
<path d="M371.582 243.409L404.525 257.523C404.525 257.523 394.474 223.423 394.533 223.112C384.6 226.015 375.991 233.164 371.582 243.409Z" fill="#9DDAF3"/>
<path d="M478.86 307.163H322.486C320.474 307.163 318.848 305.535 318.848 303.521V257.33H482.498V303.521C482.498 305.535 480.872 307.163 478.86 307.163Z" fill="#CDD7E0"/>
<path d="M478.432 281.89H322.904V283.761H478.432V281.89Z" fill="#441903"/>
<path d="M468.72 211.471L446.82 209.722L440.364 290.761L462.264 292.509L468.72 211.471Z" fill="#9DDAF3"/>
<path d="M397.912 292.404L387.224 299.334C385.087 300.727 382.22 300.115 380.837 297.967L345.312 243.082C343.921 240.943 344.533 238.073 346.679 236.688L357.366 229.758C359.504 228.365 362.37 228.977 363.754 231.125L399.278 286.01C400.67 288.158 400.058 291.019 397.912 292.404Z" fill="#13B5EA"/>
<path d="M378.959 216.597L357.652 221.961L375.84 294.352L397.147 288.988L378.959 216.597Z" fill="#F1F4F6"/>
<path d="M475.593 259.785L455.314 251.322L441.2 285.212L461.478 293.675L475.593 259.785Z" fill="#51D9AE"/>
<path d="M462.96 263.906L456.086 265.652L459.657 282.912" stroke="white" stroke-width="2.8404" stroke-miterlimit="10"/>
<path d="M404.57 293.637C424.412 293.637 440.497 277.536 440.497 257.674C440.497 237.812 424.412 221.711 404.57 221.711C384.728 221.711 368.643 237.812 368.643 257.674C368.643 277.536 384.728 293.637 404.57 293.637Z" fill="white"/>
<path d="M437.949 244.383L404.688 257.724L418.016 291.027C436.348 283.618 445.259 262.776 437.949 244.383Z" fill="#FDCC08"/>
<path d="M371.584 243.409L404.527 257.523C404.527 257.523 394.476 223.423 394.535 223.112C384.602 226.015 375.993 233.164 371.584 243.409Z" fill="#9DDAF3"/>
<path d="M362.528 296.23C362.528 296.23 365.026 306.164 368.572 305.695C368.572 305.695 385.806 300.434 389.955 299.099C394.105 297.765 395.924 295.642 395.37 292.42C394.817 289.198 391.489 286.975 387.943 287.444L367.943 289.551C364.397 290.02 361.975 293.016 362.528 296.23Z" fill="#BA5602"/>
<path d="M383.965 298.101L364.023 286.471L329.504 302.741L363.319 325.807C366.068 326.957 369.027 327.486 372.003 327.368L390.645 325.656C400.277 325.27 408.802 319.288 412.457 310.36L413.798 307.163L391.048 307.029L383.965 298.101Z" fill="#BA5602"/>
<path d="M405.933 81.9817C418.228 80.1246 427.187 71.9253 425.942 63.6682C424.697 55.411 413.721 50.2227 401.425 52.0799C389.13 53.937 380.171 62.1362 381.416 70.3934C382.66 78.6506 393.637 83.8388 405.933 81.9817Z" fill="#371F38"/>
<path d="M372.822 189.717L366.603 199.828L360.584 209.762C356.627 216.383 352.763 223.011 349.083 229.632C345.412 236.244 341.899 242.881 338.848 249.325C337.331 252.539 335.931 255.71 334.816 258.614C334.263 260.057 333.785 261.441 333.442 262.583C333.257 263.178 333.148 263.64 333.039 264.059L332.922 264.655L325.227 244.727L366.108 287.596L344.171 313.12L295.721 279.062C290.062 275.085 287.254 268.548 287.774 262.121L288.026 259.134C288.277 257.154 288.612 255.467 288.964 253.906C289.325 252.404 289.702 250.953 290.096 249.661C290.884 247.018 291.722 244.668 292.577 242.428C294.296 237.964 296.098 233.911 297.95 229.984C301.655 222.156 305.553 214.839 309.543 207.639C313.533 200.457 317.624 193.442 321.773 186.503L328.026 176.174L334.213 166.105L372.822 189.717Z" fill="#028DDE"/>
<path d="M412.32 153.401C423.31 153.686 434.769 153.51 446.144 152.973C457.544 152.445 468.961 151.58 480.319 150.38C491.677 149.155 502.968 147.578 514.134 145.572C525.299 143.559 536.339 141.134 547.118 138.121L558.259 170.745C546.59 175.351 534.771 179.262 522.876 182.702C510.982 186.134 499.003 189.096 486.966 191.663C474.929 194.214 462.833 196.396 450.653 198.233C438.457 200.071 426.26 201.548 413.569 202.538L412.32 153.401Z" fill="#028DDE"/>
<path d="M576.079 131.249L546.883 138.138L557.126 171.156L579.03 163.881C591.218 161.129 605.459 162.287 609.692 146.302L591.72 138.272C589.432 131.577 582.709 128.816 576.079 131.249Z" fill="#BA5602"/>
<path d="M599.751 155.247C589.709 157.244 580.153 157.395 571.527 154.081L574.025 132.785L600.338 140.135C604.018 141.167 606.407 144.725 605.962 148.526C605.56 151.874 603.054 154.593 599.751 155.247Z" fill="#6D2C00"/>
<rect x="592.082" y="135.529" width="49.4564" height="15.9426" rx="2" fill="#0078C8"/>
<path d="M578.394 155.952C584.94 155.952 590.247 150.64 590.247 144.087C590.247 137.535 584.94 132.223 578.394 132.223C571.848 132.223 566.541 137.535 566.541 144.087C566.541 150.64 571.848 155.952 578.394 155.952Z" fill="#6D2C00"/>
<path d="M574.061 155.952C581.028 155.952 586.677 150.64 586.677 144.087C586.677 137.535 581.028 132.223 574.061 132.223C567.093 132.223 561.445 137.535 561.445 144.087C561.445 150.64 567.093 155.952 574.061 155.952Z" fill="#BA5602"/>
<path d="M574.721 135.973C574.721 135.973 576.464 144.658 579.549 144.406C579.549 144.406 594.654 140.58 598.292 139.607C601.93 138.625 603.59 136.871 603.246 134.06C602.902 131.258 600.128 129.194 597.043 129.454L579.683 130.435C576.59 130.687 574.377 133.171 574.721 135.973Z" fill="#BA5602"/>
<path d="M707.39 84.9739H544.636C541.686 84.9739 539.297 87.3653 539.297 90.3188V106.496H712.738V90.3188C712.73 87.3736 710.341 84.9739 707.39 84.9739Z" fill="#0078C8"/>
<path d="M687.584 235.673H667.198C666.871 235.673 666.611 235.413 666.611 235.086V230.093C666.611 229.774 666.871 229.506 667.198 229.506H687.584C687.911 229.506 688.171 229.766 688.171 230.093V235.086C688.171 235.413 687.903 235.673 687.584 235.673Z" fill="#CDD7E0"/>
<path d="M546.488 92.5172V101.093C546.488 101.386 546.731 101.63 547.025 101.63L571.627 101.621C571.921 101.621 572.164 101.378 572.164 101.084V92.5088C572.164 92.2151 571.921 91.9718 571.627 91.9718L547.025 91.9802C546.731 91.9802 546.488 92.2151 546.488 92.5172Z" fill="#11558A"/>
<path d="M568.457 96.0833H550.209V97.5098H568.457V96.0833Z" fill="#0980C6"/>
<path d="M606.121 104.231H578.627V106.505H606.121V104.231Z" fill="#9DDAF3"/>
<path d="M557.135 174.378L550.899 176.694C549.759 177.122 548.493 176.493 548.133 175.318L537.462 139.951C537.118 138.809 537.78 137.601 538.937 137.291L544.964 135.663C546.062 135.369 547.194 135.99 547.538 137.073L558.418 171.752C558.753 172.834 558.192 173.984 557.135 174.378Z" fill="#13B5EA"/>
<path d="M342.771 314.236L336.04 309.219C335.461 308.791 335.369 307.96 335.83 307.406L358.84 280.035C359.293 279.498 360.097 279.44 360.626 279.901L366.585 285.196C367.088 285.64 367.147 286.404 366.72 286.924L344.481 314.018C344.053 314.538 343.299 314.631 342.771 314.236Z" fill="#13B5EA"/>
<path d="M551.813 170.476C553.151 170.476 554.236 169.391 554.236 168.051C554.236 166.712 553.151 165.626 551.813 165.626C550.475 165.626 549.391 166.712 549.391 168.051C549.391 169.391 550.475 170.476 551.813 170.476Z" fill="#F1F4F6"/>
<path d="M398.508 206.599C393.89 206.599 390.143 202.848 390.143 198.225V155.557H406.874V198.225C406.874 202.848 403.135 206.599 398.508 206.599Z" fill="#0078C8"/>
<path d="M399.093 175.242C400.449 175.242 401.549 174.142 401.549 172.784C401.549 171.426 400.449 170.325 399.093 170.325C397.736 170.325 396.637 171.426 396.637 172.784C396.637 174.142 397.736 175.242 399.093 175.242Z" fill="#F1F4F6"/>
<path d="M399.093 194.734C400.449 194.734 401.549 193.634 401.549 192.276C401.549 190.918 400.449 189.817 399.093 189.817C397.736 189.817 396.637 190.918 396.637 192.276C396.637 193.634 397.736 194.734 399.093 194.734Z" fill="#F1F4F6"/>
<path d="M373.64 153.391L420.959 153.391L420.959 144.522L373.64 144.522L373.64 153.391Z" fill="#13B5EA"/>
<path d="M417.393 156.875H377.216C375.238 156.875 373.637 155.272 373.637 153.292H420.972C420.964 155.272 419.363 156.875 417.393 156.875Z" fill="#0078C8"/>
</svg>
