<svg width="1000" height="440" viewBox="0 0 1000 440" fill="none" xmlns="http://www.w3.org/2000/svg">
<g clip-path="url(#clip0_150_2182)">
<path d="M258.769 184.436C302.825 184.436 338.538 148.722 338.538 104.667C338.538 60.6114 302.825 24.8975 258.769 24.8975C214.714 24.8975 179 60.6114 179 104.667C179 148.722 214.714 184.436 258.769 184.436Z" fill="#9DDAF3"/>
<path d="M285.934 84.846L307.969 104.019C310.184 105.963 311.966 108.285 313.208 110.716L333.839 151.221L314.612 139.016L385.848 144.416L384.606 182.87L313.154 183.734C304.999 183.842 297.87 179.197 294.359 172.392L293.927 171.528L273.296 131.022L278.535 137.719L256.5 118.547L285.934 84.846V84.846Z" fill="#1BC18A"/>
<path d="M275.511 76.9068L244.997 72.4782L222.638 76.1507C197.632 80.2553 178.568 100.832 176.407 126.054C176.083 129.51 175.867 132.751 175.705 135.721L172.303 186.866H245.321V186.758H268.058V186.866H314.559L314.235 183.95C310.508 152.139 326.44 119.303 326.44 119.303C326.44 119.303 304.297 91.2729 288.257 82.1996L275.511 76.9068V76.9068Z" fill="#1BC18A"/>
<path d="M294.576 80.4173C297.439 81.0654 300.301 81.7675 303.164 82.5236C304.622 82.9017 306.026 83.2797 307.43 83.6578C308.834 84.0358 310.293 84.4139 311.697 84.846H311.751C315.477 85.9261 318.826 87.9784 321.472 90.5168L333.624 102.344L345.722 114.226L357.765 126.162L369.755 138.151L359.656 132.589C362.95 133.561 366.244 134.533 369.539 135.559L374.454 137.071L379.368 138.638C382.663 139.664 385.903 140.798 389.198 141.878C392.438 143.012 395.733 144.146 398.973 145.388C408.964 149.223 413.987 160.403 410.153 170.394C406.912 178.873 398.325 183.788 389.684 182.708C386.227 182.276 382.825 181.79 379.422 181.25C376.02 180.709 372.617 180.169 369.215 179.521L364.138 178.603L359.061 177.631C355.659 176.983 352.31 176.281 348.908 175.633C345.398 174.931 342.265 173.256 339.835 170.988L338.863 170.07C334.704 166.181 330.599 162.293 326.441 158.35L314.073 146.631L301.759 134.803L289.5 122.921L299.275 128.592C297.871 128.214 296.413 127.782 295.008 127.35C293.604 126.918 292.2 126.54 290.742 126.108C287.933 125.244 285.125 124.38 282.317 123.407C270.597 119.411 264.332 106.665 268.329 94.9994C272.163 84.1439 283.559 77.987 294.576 80.4173V80.4173Z" fill="#1BC18A"/>
<path d="M401.295 184.004L429.055 185.084L430.783 152.734L399.459 146.631L401.295 184.004Z" fill="#BA5602"/>
<path d="M463.512 169.584C462.594 171.798 461.406 174.175 460.218 176.497C455.681 185.03 445.906 189.459 436.508 187.136L421.656 183.518L429.865 152.626L450.82 151.707C454.439 151.545 457.949 152.95 460.542 155.488L460.704 155.65C464.322 159.268 465.51 164.831 463.512 169.584V169.584Z" fill="#BA5602"/>
<path d="M664.959 440C754.591 440 827.252 367.339 827.252 277.707C827.252 188.075 754.591 115.414 664.959 115.414C575.327 115.414 502.666 188.075 502.666 277.707C502.666 367.339 575.327 440 664.959 440Z" fill="#F1F4F6"/>
<path d="M524.541 217.975L525.999 215.49C527.944 212.304 531.4 210.306 535.127 210.306L541.661 210.252C545.874 210.252 549.709 212.682 551.491 216.571L554.137 222.457C556.19 227.048 554.785 232.449 550.735 235.419L546.738 238.39C542.58 241.468 536.747 241.144 533.02 237.525L526.377 231.207C522.705 227.804 521.949 222.295 524.541 217.975V217.975Z" fill="#EB6C00"/>
<path d="M433.484 180.507C433.484 171.671 440.648 164.507 449.484 164.507H526.58C535.416 164.507 542.58 171.671 542.58 180.507V217.097C542.58 225.933 535.416 233.097 526.58 233.097H449.484C440.648 233.097 433.484 225.933 433.484 217.097V180.507Z" fill="#D8EFFF"/>
<g filter="url(#filter0_d_150_2182)">
<rect x="464.699" y="189.567" width="46.9866" height="15.1221" rx="2" fill="#0078C8"/>
</g>
<path d="M549.439 223.213L538.259 221.215C535.775 220.783 534.101 218.407 534.533 215.868C534.965 213.384 537.341 211.71 539.88 212.142L551.059 214.14C553.543 214.572 555.218 216.949 554.786 219.487C554.3 222.025 551.923 223.645 549.439 223.213Z" fill="#EB6C00"/>
<path d="M733.606 255.942L782.213 313.46L783.347 314.81C789.774 322.425 788.802 333.821 781.187 340.248C781.079 340.356 780.863 340.518 780.701 340.626L728.259 382.05L710.275 363.903L752.239 311.894L750.781 339.006L704.496 279.597L733.606 255.942V255.942Z" fill="#EB6C00"/>
<path d="M724.693 403.383L713.459 398.792L726.691 366.496L739.869 383.292C741.867 385.83 742.839 389.017 742.623 392.203C742.029 401.061 732.902 406.731 724.693 403.383V403.383Z" fill="#EB6C00"/>
<path d="M745.864 476.509C749.266 442.322 738.627 391.339 720.804 367.9H633.636L613.707 476.509H745.864Z" fill="#0980C6"/>
<path d="M647.246 286.402L588.054 309.464L586.704 310.004C578.009 313.406 568.179 309.464 564.075 301.308L530.752 234.771L552.301 221.107L598.207 279.651L574.228 271.442L634.446 251.189L647.246 286.402Z" fill="#EB6C00"/>
<path d="M694.989 238.066H657.94L617.326 255.942C617.326 255.942 624.671 284.512 624.617 301.254L632.07 362.175H723.397L736.467 270.524C737.709 257.832 729.392 246.167 716.97 243.25L694.989 238.066Z" fill="#0980C6"/>
<path d="M673.764 278.679C658.21 278.679 644.222 270.686 634.285 256.212C630.99 251.405 629.316 245.627 629.532 239.794L632.611 164.291L713.46 159.863L721.777 237.633C722.641 245.735 719.779 253.836 714.054 259.615C698.338 275.385 683.486 278.679 673.764 278.679V278.679Z" fill="#028DDE"/>
<path d="M673.979 271.442C660.315 271.442 648.056 264.421 639.307 251.729C636.39 247.517 634.932 242.44 635.148 237.309L637.848 171.042L708.814 167.154L716.105 235.365C716.861 242.494 714.377 249.569 709.3 254.646C695.582 268.526 682.513 271.442 673.979 271.442V271.442Z" fill="#0980C6"/>
<path d="M660.801 193.617L687.589 192.159L692.45 237.904C679.866 250.595 667.714 251.027 658.965 238.282L660.801 193.617Z" fill="#EB6C00"/>
<path d="M694.394 177.577H673.007C675.437 191.295 668.038 206.687 657.129 218.893H677.544C680.298 216.841 682.512 213.114 683.269 209.333C684.349 212.952 684.457 216.192 682.891 218.893H711.083C720.048 207.281 708.814 192.861 703.683 177.577H694.394V177.577Z" fill="#F7A800"/>
<path d="M664.798 177.577H643.411C645.842 191.295 638.443 206.687 627.533 218.893H646.166C648.92 216.841 651.135 213.114 651.891 209.333C652.971 212.952 653.079 216.192 651.513 218.893H677.058L679.218 177.577H664.798V177.577Z" fill="#F2930C"/>
<path d="M660.801 193.617L687.589 192.159L692.45 237.904C679.866 250.595 667.714 251.027 658.965 238.282L660.801 193.617Z" fill="#EB6C00"/>
<path d="M660.803 193.617L687.266 193.347L681.38 215.004L659.561 223.105L660.803 193.617Z" fill="#BA5602"/>
<path d="M658.964 208.145C662.782 208.145 665.877 205.05 665.877 201.232C665.877 197.414 662.782 194.319 658.964 194.319C655.146 194.319 652.051 197.414 652.051 201.232C652.051 205.05 655.146 208.145 658.964 208.145Z" stroke="#F1F4F6" stroke-width="2.2033" stroke-miterlimit="10"/>
<path d="M648.001 183.41C655.399 183.41 661.395 177.413 661.395 170.016C661.395 162.619 655.399 156.622 648.001 156.622C640.604 156.622 634.607 162.619 634.607 170.016C634.607 177.413 640.604 183.41 648.001 183.41Z" fill="#F2930C"/>
<path d="M684.889 210.36H684.619V170.826L704.44 175.849V189.891C704.44 200.8 695.853 209.928 684.889 210.36Z" fill="#F7A800"/>
<path d="M671.711 207.065H671.981V167.532L652.16 172.554V186.596C652.106 197.56 660.748 206.633 671.711 207.065Z" fill="#F2930C"/>
<path d="M655.994 180.169C659.961 180.169 663.177 176.953 663.177 172.986C663.177 169.019 659.961 165.803 655.994 165.803C652.026 165.803 648.811 169.019 648.811 172.986C648.811 176.953 652.026 180.169 655.994 180.169Z" fill="#BA5602"/>
<path d="M653.023 187.622C656.99 187.622 660.206 184.406 660.206 180.439C660.206 176.472 656.99 173.256 653.023 173.256C649.056 173.256 645.84 176.472 645.84 180.439C645.84 184.406 649.056 187.622 653.023 187.622Z" fill="#F7A800"/>
<path d="M694.825 185.624V171.366C694.825 162.995 680.027 163.265 668.901 163.265H668.145C659.396 163.265 655.021 162.995 655.021 171.312V201.286C655.021 203.987 655.454 206.687 656.48 209.171C657.884 212.52 660.476 216.192 665.229 216.192H674.14C682.997 216.192 690.99 211.98 692.773 201.07C692.827 200.314 694.825 187.352 694.825 185.624V185.624Z" fill="#F98000"/>
<path d="M681.54 171.366C690.235 176.875 688.183 191.781 696.014 176.173C695.636 168.882 682.134 163.643 671.603 162.347L670.846 162.239C667.228 161.807 664.366 161.375 662.205 161.699C661.665 162.455 662.313 167.424 662.097 168.288C660.909 172.176 672.845 165.857 681.54 171.366V171.366Z" fill="#BA5602"/>
<path d="M692.774 196.156C695.249 196.156 697.256 194.149 697.256 191.673C697.256 189.197 695.249 187.19 692.774 187.19C690.298 187.19 688.291 189.197 688.291 191.673C688.291 194.149 690.298 196.156 692.774 196.156Z" fill="#F98000"/>
<path d="M692.881 196.156C695.311 196.102 697.31 194.103 697.31 191.673V191.565H692.935V196.156H692.881Z" fill="#F98000"/>
<path d="M698.175 158.782C694.826 154.3 689.263 151.599 683.376 151.599H675.221C672.035 151.707 669.064 150.519 666.634 148.467C663.988 146.253 660.423 145.01 656.643 145.334C649.946 145.929 644.545 151.437 644.167 158.134C643.681 166.127 650 172.716 657.831 172.716C662.043 172.716 665.824 170.826 668.308 167.802C668.308 167.802 685.699 163.211 688.885 181.196C691.586 186.812 696.77 190.809 702.819 192.159L703.467 192.321L704.331 179.845C704.98 172.392 702.819 164.939 698.175 158.782V158.782Z" fill="#F7A800"/>
<path opacity="0.4" d="M656.804 192.753C660.861 192.753 664.149 189.465 664.149 185.408C664.149 181.352 660.861 178.063 656.804 178.063C652.747 178.063 649.459 181.352 649.459 185.408C649.459 189.465 652.747 192.753 656.804 192.753Z" fill="#DAE5ED"/>
<path opacity="0.4" d="M673.169 192.753C677.226 192.753 680.514 189.465 680.514 185.408C680.514 181.352 677.226 178.063 673.169 178.063C669.113 178.063 665.824 181.352 665.824 185.408C665.824 189.465 669.113 192.753 673.169 192.753Z" fill="#DAE5ED"/>
<path opacity="0.5" d="M690.128 184.922L680.785 185.192C681.001 189.405 677.382 193.023 673.169 193.023C668.957 193.023 665.554 189.621 665.554 185.408L665.608 184.922H664.42L664.474 185.408C664.474 189.621 661.072 193.023 656.859 193.023C652.647 193.023 649.244 189.621 649.244 185.408" stroke="#BA5602" stroke-width="1.287" stroke-miterlimit="10"/>
<path d="M664.041 184.544H666.039" stroke="#BA5602" stroke-width="1.03" stroke-miterlimit="10"/>
<path d="M646.488 178.819C652.662 178.819 657.668 173.814 657.668 167.64C657.668 161.465 652.662 156.46 646.488 156.46C640.314 156.46 635.309 161.465 635.309 167.64C635.309 173.814 640.314 178.819 646.488 178.819Z" fill="#F7A800"/>
<path d="M672.953 160.889C676.92 160.889 680.136 157.673 680.136 153.706C680.136 149.739 676.92 146.523 672.953 146.523C668.985 146.523 665.77 149.739 665.77 153.706C665.77 157.673 668.985 160.889 672.953 160.889Z" fill="#F7A800"/>
<path d="M693.368 208.145C697.186 208.145 700.281 205.05 700.281 201.232C700.281 197.414 697.186 194.319 693.368 194.319C689.55 194.319 686.455 197.414 686.455 201.232C686.455 205.05 689.55 208.145 693.368 208.145Z" stroke="#F1F4F6" stroke-width="2.2033" stroke-miterlimit="10"/>
<path d="M692.828 196.21C695.258 196.156 697.257 194.157 697.257 191.727V191.619H692.882V196.21H692.828Z" fill="#F98000"/>
<path d="M694.287 250.595H657.021C655.563 250.595 654.375 249.407 654.375 247.949V229.802C654.375 228.344 655.563 227.156 657.021 227.156H694.287C695.745 227.156 696.933 228.344 696.933 229.802V247.949C696.933 249.407 695.745 250.595 694.287 250.595ZM723.073 362.931L706.33 289.643L732.632 254.592L742.569 266.42L723.073 362.931Z" fill="#0980C6"/>
<path d="M721.884 377.675H633.257C629.693 377.675 627.208 374.111 628.505 370.762L631.853 361.851H723.342L726.69 370.762C727.933 374.111 725.448 377.675 721.884 377.675V377.675Z" fill="#13B5EA"/>
<path d="M674.628 382.158C681.429 382.158 686.942 376.645 686.942 369.844C686.942 363.043 681.429 357.53 674.628 357.53C667.827 357.53 662.314 363.043 662.314 369.844C662.314 376.645 667.827 382.158 674.628 382.158Z" stroke="#9DDAF3" stroke-width="5.508" stroke-miterlimit="10"/>
<path d="M663.18 370.06H672.685" stroke="#9DDAF3" stroke-width="5.508" stroke-miterlimit="10" stroke-linecap="round"/>
<path d="M728.366 404.841C724.045 403.059 721.993 398.144 723.721 393.824L729.716 379.187L738.897 390.907C740.302 392.689 742.084 393.337 741.922 395.552C741.976 395.498 738.519 407.649 728.366 404.841V404.841Z" fill="#EB6C00"/>
<path d="M485.98 147.819V137.935M475.34 150.897L468.373 143.93L475.34 150.897ZM496.295 150.897L503.262 143.93L496.295 150.897Z" stroke="#FDCC08" stroke-width="6" stroke-miterlimit="10" stroke-linecap="round"/>
<path d="M450.984 178.225C449.039 181.466 444.827 182.492 441.532 180.547L431.649 174.553C428.408 172.608 427.382 168.396 429.327 165.101C431.271 161.861 435.483 160.835 438.778 162.779L448.661 168.774C451.956 170.772 452.982 174.985 450.984 178.225Z" fill="#BA5602"/>
<path d="M404.535 187.028L394.328 185.354C393.194 185.138 392.383 184.058 392.599 182.924L399.35 146.577C399.566 145.388 400.755 144.632 401.943 144.902L409.99 146.901C411.016 147.171 411.718 148.143 411.556 149.223L406.965 185.246C406.803 186.434 405.723 187.244 404.535 187.028V187.028Z" fill="#51D9AE"/>
<path d="M280.481 186.974V86.0881H275.944V89.5446H255.043V86.0881H248.4V186.974H280.481Z" fill="#F7A800"/>
<path d="M248.4 128.214H280.535V132.319H248.4V128.214ZM248.4 146.199H280.535V150.303H248.4V146.199ZM248.4 110.284H280.535V114.388H248.4V110.284Z" fill="#F2930C"/>
<path d="M239.921 99.644H282.101V71.3981L242.351 67.1855C238.354 66.7534 234.628 69.3458 233.602 73.2343C231.873 80.1473 231.279 86.7362 232.252 93.1631C232.9 96.8896 236.14 99.644 239.921 99.644V99.644Z" fill="#51D9AE"/>
<path d="M289.177 99.644H276.053V71.128H286.044C289.285 71.128 292.093 73.4503 292.687 76.6368L295.549 92.029C296.252 95.9715 293.227 99.644 289.177 99.644V99.644Z" fill="#51D9AE"/>
<path d="M277.025 87.6544L282.21 39.8576L246.727 36.0231L241.542 83.8198C240.786 91.0028 245.971 97.4838 253.154 98.2939L262.551 99.32C269.788 100.076 276.269 94.8914 277.025 87.6544V87.6544Z" fill="#BA5602"/>
<path d="M275.078 96.9977V33.1067C275.078 27.4899 270.542 22.9532 264.925 22.9532C259.308 22.9532 254.771 27.4899 254.771 33.1067V96.9977C254.771 102.614 259.308 107.151 264.925 107.151C270.542 107.205 275.078 102.614 275.078 96.9977Z" fill="#BA5602"/>
<path d="M282.046 87.5463V72.2082H261.631V75.9887L282.046 87.5463Z" fill="#BA5602"/>
<path d="M275.134 99.644H287.286L287.556 72.2622L275.134 81.9835V99.644ZM254.611 98.6719H237.653L237.383 71.344L254.611 81.0654V98.6719Z" fill="#51D9AE"/>
<path d="M280.533 95.6475H284.692" stroke="#371F38" stroke-width="3.7736" stroke-miterlimit="10"/>
<path d="M282.641 96.1875L282.479 118.061" stroke="white" stroke-width="2.5157" stroke-miterlimit="10" stroke-linecap="round"/>
<path d="M285.556 20.4149L274.053 21.387L275.457 37.2112L279.508 43.2061C281.56 42.882 283.45 41.6939 285.016 40.0196C289.715 35.1049 290.201 27.4899 286.42 21.7651L285.556 20.4149V20.4149Z" fill="#371F38"/>
<path d="M290.093 15.5542L283.18 16.1483L284.044 25.5996L286.474 29.1641C287.716 28.9481 288.85 28.246 289.769 27.2738C292.577 24.3574 292.847 19.7668 290.633 16.3643L290.093 15.5542Z" fill="#371F38"/>
<path d="M264.981 24.0874L274.487 23.0612C279.833 22.5212 284.64 26.3557 285.18 31.7025L287.664 55.0337C288.583 63.837 282.102 71.7221 273.19 72.6402L262.713 73.7204C255.476 74.4765 248.995 69.2917 248.239 62.1627L248.077 60.8666L244.404 26.1937L264.981 24.0874V24.0874Z" fill="#BA5602"/>
<path d="M242.837 49.0929L250.56 46.5546L247.428 23.6013C247.428 23.6013 239.488 24.6275 240.623 30.9464L242.837 49.0929Z" fill="#6D2C00"/>
<path d="M287.611 54.8177L287.557 54.5477C287.287 52.2254 286.261 50.3351 283.938 50.1731C283.56 50.1731 282.318 50.2271 281.94 50.2811L267.466 51.8473C263.361 52.2794 260.391 55.9519 260.823 60.0564L287.665 57.2481C287.719 56.4379 287.719 55.6278 287.611 54.8177Z" fill="#371F38"/>
<path d="M247.32 47.9047L242.297 46.9866L243.971 63.0809C247.968 59.1383 249.588 55.0338 247.806 49.525L247.32 47.9047V47.9047Z" fill="#6D2C00"/>
<path d="M257.527 59.1923L250.506 59.9485L249.75 52.4414C249.588 50.8752 250.884 49.525 252.45 49.633L253.045 49.687C255.097 49.849 256.717 51.4152 256.933 53.4135L257.527 59.1923V59.1923Z" fill="#371F38"/>
<path d="M231.928 29.5962C231.496 25.6536 233.764 22.0891 237.22 20.6309C237.112 20.2529 237.058 19.9288 237.004 19.5508C236.518 14.9061 239.867 10.7475 244.511 10.2614L262.82 8.31717C263.36 1.56622 283.073 -5.02271 289.716 8.26316C293.064 14.9601 286.961 22.0891 279.724 23.4393V23.4933L252.991 26.3017C253.477 35.483 244.349 62.4328 243.809 62.4328L232.522 35.159L231.928 29.5962Z" fill="#371F38"/>
<path d="M246.725 50.1191C249.797 50.1191 252.288 47.6285 252.288 44.5563C252.288 41.484 249.797 38.9935 246.725 38.9935C243.653 38.9935 241.162 41.484 241.162 44.5563C241.162 47.6285 243.653 50.1191 246.725 50.1191Z" fill="#BA5602"/>
<path d="M287.717 55.9519L288.581 63.837C288.959 67.4015 287.609 70.966 284.801 73.2343C283.505 74.2605 281.992 75.1246 280.318 75.2866L265.574 76.8528C258.337 77.6089 251.478 69.1297 250.722 61.8387L250.56 60.4885L250.506 59.8404L287.717 55.9519V55.9519Z" fill="#371F38"/>
<path d="M246.24 95.6475H250.453" stroke="#371F38" stroke-width="3.7736" stroke-miterlimit="10"/>
<path d="M248.4 96.1875L248.184 118.061" stroke="white" stroke-width="2.5157" stroke-miterlimit="10" stroke-linecap="round"/>
</g>
<defs>
<filter id="filter0_d_150_2182" x="456.699" y="185.567" width="62.9863" height="31.1221" filterUnits="userSpaceOnUse" color-interpolation-filters="sRGB">
<feFlood flood-opacity="0" result="BackgroundImageFix"/>
<feColorMatrix in="SourceAlpha" type="matrix" values="0 0 0 0 0 0 0 0 0 0 0 0 0 0 0 0 0 0 127 0" result="hardAlpha"/>
<feOffset dy="4"/>
<feGaussianBlur stdDeviation="4"/>
<feComposite in2="hardAlpha" operator="out"/>
<feColorMatrix type="matrix" values="0 0 0 0 0 0 0 0 0 0 0 0 0 0 0 0 0 0 0.2 0"/>
<feBlend mode="normal" in2="BackgroundImageFix" result="effect1_dropShadow_150_2182"/>
<feBlend mode="normal" in="SourceGraphic" in2="effect1_dropShadow_150_2182" result="shape"/>
</filter>
<clipPath id="clip0_150_2182">
<rect width="1000" height="440" fill="white"/>
</clipPath>
</defs>
</svg>
