<svg id="Layer_1" data-name="Layer 1" xmlns="http://www.w3.org/2000/svg" xmlns:xlink="http://www.w3.org/1999/xlink" viewBox="0 0 1926.93 957.65"><defs><style>.cls-1,.cls-23,.cls-24,.cls-25,.cls-26,.cls-27,.cls-28,.cls-29,.cls-30,.cls-31,.cls-32,.cls-33,.cls-34,.cls-35,.cls-36,.cls-38,.cls-41,.cls-42,.cls-43,.cls-45,.cls-47,.cls-54,.cls-60,.cls-61,.cls-62,.cls-63,.cls-64,.cls-65,.cls-66,.cls-68,.cls-69,.cls-71,.cls-72,.cls-73,.cls-75,.cls-76,.cls-78,.cls-80,.cls-83,.cls-84{fill:none;}.cls-2{fill:#fdcc08;}.cls-3{fill:#9ddaf3;}.cls-4{fill:#51d9ae;}.cls-5{fill:#99a8b7;}.cls-6{fill:#cdd7e0;}.cls-7{fill:#1bc18a;}.cls-8{fill:#371f38;}.cls-9{fill:#d34853;}.cls-10{fill:#ff6469;}.cls-11{fill:#441903;}.cls-12{fill:#f1f4f6;}.cls-13{fill:#2e2eef;}.cls-14{clip-path:url(#clip-path);}.cls-15{fill:#f7a800;}.cls-16{fill:#ba5602;}.cls-17{fill:#f98000;}.cls-18{clip-path:url(#clip-path-2);}.cls-19{fill:#6d2c00;}.cls-20{fill:#eb6c00;}.cls-21{fill:#5c5ce5;}.cls-22{fill:#0980c6;}.cls-23,.cls-38{stroke:#ba5602;}.cls-23,.cls-24,.cls-38,.cls-62,.cls-63,.cls-66,.cls-75{stroke-linejoin:round;}.cls-23{stroke-width:33.19px;}.cls-24,.cls-33,.cls-68,.cls-69{stroke:#cdd7e0;}.cls-24,.cls-26,.cls-35,.cls-66,.cls-73,.cls-76,.cls-80{stroke-linecap:round;}.cls-24{stroke-width:8.54px;}.cls-25,.cls-34,.cls-72,.cls-80{stroke:#371f38;}.cls-25,.cls-26,.cls-27,.cls-28,.cls-29,.cls-30,.cls-31,.cls-32,.cls-33,.cls-34,.cls-35,.cls-36,.cls-41,.cls-42,.cls-43,.cls-45,.cls-47,.cls-54,.cls-59,.cls-60,.cls-61,.cls-64,.cls-65,.cls-68,.cls-69,.cls-71,.cls-72,.cls-73,.cls-76,.cls-78,.cls-80,.cls-83,.cls-84{stroke-miterlimit:10;}.cls-25{stroke-width:13.28px;}.cls-26,.cls-27,.cls-28,.cls-30,.cls-35,.cls-36,.cls-66,.cls-76,.cls-84{stroke:#99a8b7;}.cls-26,.cls-28{stroke-width:10.56px;}.cls-27{stroke-width:17.07px;}.cls-29{stroke:#dae5ed;stroke-width:18.97px;}.cls-30{stroke-width:22.76px;}.cls-31{stroke:#fff;stroke-width:3.79px;}.cls-32,.cls-63{stroke:#502553;}.cls-32{stroke-width:18.02px;}.cls-33,.cls-35,.cls-65{stroke-width:2.85px;}.cls-34{stroke-width:1.9px;}.cls-36{stroke-width:11.38px;}.cls-37{fill:#2929cd;}.cls-38{stroke-width:33.98px;}.cls-39,.cls-59{fill:#dae5ed;}.cls-40{fill:#f2930c;}.cls-41{stroke:#f98000;}.cls-41,.cls-42,.cls-45,.cls-59,.cls-60,.cls-64{stroke-width:0.95px;}.cls-42{stroke:#f2930c;}.cls-43,.cls-47,.cls-59,.cls-60,.cls-73{stroke:#6d2c00;}.cls-43{stroke-width:5.69px;}.cls-44{clip-path:url(#clip-path-3);}.cls-45{stroke:#f7a800;}.cls-46{fill:#502553;}.cls-47{stroke-width:1.13px;}.cls-48{clip-path:url(#clip-path-4);}.cls-49{clip-path:url(#clip-path-5);}.cls-50{isolation:isolate;}.cls-51{clip-path:url(#clip-path-6);}.cls-52{fill:#fa8100;}.cls-53{clip-path:url(#clip-path-7);}.cls-54{stroke:#5c5ce6;stroke-width:0.93px;}.cls-55{clip-path:url(#clip-path-8);}.cls-56{clip-path:url(#clip-path-9);}.cls-57{clip-path:url(#clip-path-10);}.cls-58{clip-path:url(#clip-path-11);}.cls-61{stroke:#f1f4f6;stroke-width:4.41px;}.cls-62{stroke:#51d9ae;stroke-width:45.52px;}.cls-63{stroke-width:80.61px;}.cls-64,.cls-65{stroke:#6a326f;}.cls-66{stroke-width:4.28px;}.cls-67{clip-path:url(#clip-path-12);}.cls-68{stroke-width:2.14px;}.cls-69{stroke-width:1.07px;}.cls-70,.cls-74{fill:#fff;}.cls-70{opacity:0.25;}.cls-71,.cls-83{stroke:#441903;}.cls-71,.cls-73{stroke-width:1.81px;}.cls-72,.cls-76,.cls-80,.cls-84{stroke-width:3.46px;}.cls-75{stroke:#0980c6;stroke-width:70.12px;}.cls-77{clip-path:url(#clip-path-13);}.cls-78{stroke:#fdcc08;stroke-width:5.05px;}.cls-79{clip-path:url(#clip-path-14);}.cls-81{fill:#028dde;}.cls-82{fill:#13b5ea;}.cls-83{stroke-width:2.54px;}</style><clipPath id="clip-path"><polygon id="SVGID" class="cls-1" points="1334.93 585.28 1219.27 556.99 1219.27 441.59 1334.93 441.59 1334.93 585.28"/></clipPath><clipPath id="clip-path-2"><path id="SVGID-2" data-name="SVGID" class="cls-1" d="M1217.29,562.76c3,4.41.8,10.47-6.93,14.26,0,0,8.77,15.17,25.48,13.25a24.78,24.78,0,0,1-7.14,5.7h0A24.93,24.93,0,0,1,1195,585.71l-.76-1.42a42,42,0,0,1-4-9.79C1186.39,558.5,1208.11,549.11,1217.29,562.76Z"/></clipPath><clipPath id="clip-path-3"><path id="SVGID-3" data-name="SVGID" class="cls-1" d="M778.79,382.19l-33-4.32-4-.49v1.06a19.51,19.51,0,0,0,38.53,4.34Z"/></clipPath><clipPath id="clip-path-4"><circle id="SVGID-4" data-name="SVGID" class="cls-1" cx="741.8" cy="544.67" r="7.81"/></clipPath><clipPath id="clip-path-5"><rect id="SVGID-5" data-name="SVGID" class="cls-1" x="733.85" y="536.63" width="16.26" height="16.26" transform="translate(85.9 1190.4) rotate(-80.83)"/></clipPath><clipPath id="clip-path-6"><rect id="SVGID-6" data-name="SVGID" class="cls-1" x="709.35" y="508.37" width="64.49" height="73.34" transform="translate(85.29 1190.26) rotate(-80.83)"/></clipPath><clipPath id="clip-path-7"><rect id="SVGID-7" data-name="SVGID" class="cls-1" x="727.14" y="529.35" width="30.35" height="30.35" transform="translate(86.42 1190.53) rotate(-80.83)"/></clipPath><clipPath id="clip-path-8"><circle id="SVGID-8" data-name="SVGID" class="cls-1" cx="693.39" cy="536.85" r="7.81"/></clipPath><clipPath id="clip-path-9"><rect id="SVGID-9" data-name="SVGID" class="cls-1" x="685.43" y="528.81" width="16.26" height="16.26" transform="translate(52.92 1136.04) rotate(-80.83)"/></clipPath><clipPath id="clip-path-10"><rect id="SVGID-10" data-name="SVGID" class="cls-1" x="660.93" y="500.55" width="64.49" height="73.34" transform="translate(52.31 1135.89) rotate(-80.83)"/></clipPath><clipPath id="clip-path-11"><rect id="SVGID-11" data-name="SVGID" class="cls-1" x="678.73" y="521.53" width="30.35" height="30.35" transform="translate(53.44 1136.16) rotate(-80.83)"/></clipPath><clipPath id="clip-path-12"><path id="SVGID-12" data-name="SVGID" class="cls-1" d="M1310.79,633.65l-61,4a10.8,10.8,0,0,1-11.06-7.69l-22.21-74.15a10.81,10.81,0,0,1,9.65-13.9l78.32-5.08a10.82,10.82,0,0,1,11.5,10.09l4.89,75.27A10.82,10.82,0,0,1,1310.79,633.65Z"/></clipPath><clipPath id="clip-path-13"><path class="cls-1" d="M1029.23,301.45h49.2v-4a37.33,37.33,0,0,0-37.33-37.34h-15a37.34,37.34,0,0,0-37.33,37.34v27.8a7.86,7.86,0,0,0,7.87,7.86h0a15.52,15.52,0,0,0,14.84-11l3-9.69A15.52,15.52,0,0,1,1029.23,301.45Z"/></clipPath><clipPath id="clip-path-14"><path class="cls-1" d="M1251.58,466l40.12-11.25-.91-3.27a31.62,31.62,0,0,0-39-21.9L1239.53,433a31.61,31.61,0,0,0-21.9,39l6.36,22.68a6.66,6.66,0,0,0,8.21,4.61h0a13.13,13.13,0,0,0,9.59-12.35l.2-8.59A13.14,13.14,0,0,1,1251.58,466Z"/></clipPath></defs><circle class="cls-2" cx="1573.23" cy="106.66" r="72.05"/><g id="House"><path class="cls-3" d="M1532.84,232c-4.08-11.3-6.36-26.74-6.22-39.45A103.37,103.37,0,0,1,1729,163.88a93.68,93.68,0,0,1,26-3.38c44.71.48,81.07,31.86,84.73,71.48Z"/><path class="cls-3" d="M1448,232c4.67-25.41,26.94-48.79,53.66-48.5s48.56,23,52.69,48.5Z"/><path class="cls-3" d="M1408.78,232.37c3-16.61,17.61-31.9,35.08-31.71s31.75,15,34.45,31.71Z"/><path class="cls-3" d="M1359.12,119.18a52.5,52.5,0,0,0-103.5,0Z"/><path class="cls-3" d="M1284.45,119.18a30.11,30.11,0,0,0-59.36,0Z"/></g><path class="cls-3" d="M623.24,68.46a82.31,82.31,0,0,1,162.28,0Z"/><path class="cls-3" d="M740.32,68.46a47.2,47.2,0,0,1,93.06,0Z"/><path class="cls-3" d="M116.73,313.46a33.7,33.7,0,0,1,66.44,0Z"/><path class="cls-3" d="M164.67,313.46a19.33,19.33,0,0,1,38.1,0Z"/><path class="cls-4" d="M1436.41,722.14l115,46.71c19.15,7.77,45,10,68.13,5.79l19-3.42c36.75-6.63,77.63-3.82,109.5,7.53l178.92,63.71H1042.5l303.7-120.57C1372.7,711.37,1410.14,711.48,1436.41,722.14Z"/><path class="cls-5" d="M1641.13,914.78h-63.22V903a13.89,13.89,0,0,1,13.89-13.89h30.91a10.34,10.34,0,0,1,9.38,6Z"/><path class="cls-4" d="M1520.23,883.13a287.66,287.66,0,0,1,16.1,31.57H1586c2.42-12.61,5.83-24.29,18.91-39.61-16.79,1-25.84,13-30.6,23.81-1.31-12.56-4.56-25.44-10.23-35.55A79.48,79.48,0,0,0,1553.57,893c-5.57-8.18-13.71-15.86-25.19-17.92,7.74,9.06,12.1,16.86,14.86,24.32C1537.35,892.75,1529.52,886,1520.23,883.13Z"/><path class="cls-6" d="M1540,913.7H1505.8l17.51-13.14a5.88,5.88,0,0,1,3.5-1.16h7.32a5.83,5.83,0,0,1,5.83,5.82Z"/><path class="cls-7" d="M1257.9,844.08A75.81,75.81,0,1,0,1114.51,795a69.06,69.06,0,0,0-19.09-2.68c-32.8,0-59.73,22.73-62.73,51.77Z"/><path class="cls-7" d="M1217,844.08a58.32,58.32,0,1,1,110.31-37.76,52.74,52.74,0,0,1,14.67-2.07c25.24,0,46,17.49,48.26,39.83Z"/><polygon class="cls-4" points="1120.9 811.18 1113.31 842.82 1105.72 811.18 1098.13 842.82 1090.54 811.18 1082.95 842.82 1075.36 811.18 1067.42 844.29 1082.6 844.29 1083.31 844.29 1097.78 844.29 1098.48 844.29 1112.95 844.29 1113.66 844.29 1128.84 844.29 1120.9 811.18"/><polygon class="cls-4" points="1061.05 811.18 1053.46 842.82 1045.87 811.18 1038.28 842.82 1030.69 811.18 1023.11 842.82 1015.52 811.18 1007.58 844.29 1022.75 844.29 1023.46 844.29 1037.93 844.29 1038.64 844.29 1053.11 844.29 1053.82 844.29 1068.99 844.29 1061.05 811.18"/><polygon class="cls-4" points="1000.37 811.18 992.78 842.82 985.19 811.18 977.6 842.82 970.01 811.18 962.42 842.82 954.83 811.18 946.89 844.29 962.07 844.29 962.77 844.29 977.25 844.29 977.95 844.29 992.42 844.29 993.13 844.29 1008.31 844.29 1000.37 811.18"/><polygon class="cls-4" points="940.52 811.18 932.93 842.82 925.34 811.18 917.75 842.82 910.16 811.18 902.58 842.82 894.99 811.18 887.04 844.29 902.22 844.29 902.93 844.29 917.4 844.29 918.11 844.29 932.58 844.29 933.28 844.29 948.46 844.29 940.52 811.18"/><path class="cls-7" d="M423.86,957.65s-17.14-95.43-50.7-84.95c-25.54,8,8.87,45.55-4.17,58.11-8.37,8.07-22.84-12.41-31.47-4s12.12,30.43,12.12,30.43l74.22.43"/><path class="cls-7" d="M398.11,957.65s13-72.34,38.42-64.39c19.36,6-6.72,34.53,3.16,44,6.35,6.11,17.32-9.41,23.86-3s-9.19,23.07-9.19,23.07l-56.25.32"/><path class="cls-8" d="M1271.66,460.37l17.8-5-35.08-26.28-12,3.11a31.62,31.62,0,0,0-21.9,39l6.53,23.31a6,6,0,0,0,7.41,4.15l17.84-5a13.14,13.14,0,0,0,9.59-12.35l.2-8.59A13.15,13.15,0,0,1,1271.66,460.37Z"/><path class="cls-7" d="M1251.58,466l40.12-11.25-.91-3.27a31.62,31.62,0,0,0-39-21.9L1239.53,433a31.61,31.61,0,0,0-21.9,39l6.36,22.68a6.66,6.66,0,0,0,8.21,4.61h0a13.13,13.13,0,0,0,9.59-12.35l.2-8.59A13.14,13.14,0,0,1,1251.58,466Z"/><polygon class="cls-9" points="1065.01 666.05 1071.91 708.48 1115.62 703.23 1108.51 659.54 1065.01 666.05"/><path class="cls-10" d="M1062.6,716.26l5.66-23.89a1.43,1.43,0,0,1,1.86-1.21l19.93,7.2c13.79,4.89,21.59,1.21,21.59,1.21a5.49,5.49,0,0,1,5.06,1.37s16.56,17,18.81,17.61l6,1.6c5.15,1.37,8.86,6.62,8.29,11.71l-.83,7.44Z"/><polygon class="cls-11" points="1148.33 744.88 1061.83 723.15 1062.6 716.26 1148.95 739.3 1148.33 744.88"/><path class="cls-12" d="M1126,716.53a1.86,1.86,0,0,0,3.27,1.77,1.82,1.82,0,0,0-.85-2.34A1.85,1.85,0,0,0,1126,716.53Z"/><path class="cls-12" d="M1118.79,710.64a1.87,1.87,0,0,0,2.66,2.61,1.88,1.88,0,0,0-2.66-2.61Z"/><path class="cls-12" d="M1113.22,703.2a1.87,1.87,0,0,0,2.08,3.09,1.87,1.87,0,0,0-2.08-3.09Z"/><path class="cls-13" d="M1066.45,699.07l-16.85-98.92,4.65,11.67-53.19-66.05,55.22-38.44,43.47,72.81,1.4,2.35a24.86,24.86,0,0,1,3.25,9.32l13.34,99.45Z"/><g class="cls-14"><polygon class="cls-15" points="1318.8 528.36 1291.13 528.36 1290.29 507.38 1318.8 513.43 1318.8 528.36"/><path class="cls-16" d="M1318.8,528.36h8.55a3.29,3.29,0,0,0,3.17-4.2l-1.39-4.93a8,8,0,0,0-7.67-5.8h-2.66Z"/><polygon class="cls-15" points="1233.93 566.93 1251.35 600.68 1242.14 605.58 1216.76 576.09 1233.93 566.93"/><circle class="cls-15" cx="1225.34" cy="571.51" r="9.73"/><path class="cls-16" d="M1238.75,595.27h18.19a0,0,0,0,1,0,0v0a6.81,6.81,0,0,1-6.81,6.81h-4.57a6.81,6.81,0,0,1-6.81-6.81v0A0,0,0,0,1,1238.75,595.27Z" transform="translate(2630.59 539.13) rotate(151.9)"/><polygon class="cls-17" points="1253.63 556.42 1269.88 590.79 1260.67 595.7 1238.16 564.67 1253.63 556.42"/><circle class="cls-17" cx="1245.9" cy="560.55" r="8.77"/><path class="cls-16" d="M1257.28,585.39h18.19a0,0,0,0,1,0,0v0a6.81,6.81,0,0,1-6.81,6.81h-4.57a6.81,6.81,0,0,1-6.81-6.81v0A0,0,0,0,1,1257.28,585.39Z" transform="translate(2660.8 511.8) rotate(151.9)"/><circle class="cls-15" cx="1277.1" cy="543.92" r="8.77"/><circle class="cls-17" cx="1291.99" cy="535.97" r="8.77"/><path class="cls-15" d="M1223.73,539.93l22.48-16.53a23.69,23.69,0,0,1,38.21-28c.11.14.2.29.31.44l11.4,15.51a38.12,38.12,0,0,1-8.13,53.29l-29.94,22a29,29,0,0,1-40.51-6.18h0A29,29,0,0,1,1223.73,539.93Z"/><g class="cls-18"><path class="cls-16" d="M1197.87,581.21a17.74,17.74,0,0,1-.59-12.3,6.69,6.69,0,0,1,10.26-3.47,6.61,6.61,0,0,1,2.51,7.36,12.1,12.1,0,0,0-.35,1.41,3.31,3.31,0,0,0,.14,1.92,4.84,4.84,0,0,0,6.3,2.58,6.53,6.53,0,0,1,1.85-1.47,6.69,6.69,0,1,1,6.3,11.81c-.08.05-2,1.2-3,1.61A17.85,17.85,0,0,1,1197.87,581.21Z"/></g><path class="cls-16" d="M1273.19,458c-2.65-2.74-2.7-6.91-2.09-10.4,1.6-.78,3.21-1.49,4.85-2.12a8.66,8.66,0,0,1,10.34,3.46l8.14,11.7a5.58,5.58,0,0,1-6.29,8.5C1284.57,468,1279.72,464.82,1273.19,458Z"/><circle class="cls-15" cx="1266.59" cy="512.26" r="23.7"/><path class="cls-15" d="M1236.52,496.23l-4.82-14.8a27.88,27.88,0,0,1,17.82-35.24c29.08-9.27,35.73,10.77,38.19,18.33l4.44,13.65h0l-5.48,26.28-42.89,14Z"/><path class="cls-15" d="M1249.52,446.19c29.08-9.27,35.73,10.77,38.19,18.33l3.68,11.31c.85-.1,1.69-.18,2.52-.23h0v0h.63c.35,0,.75.08,1.19.15a7.06,7.06,0,0,1,5.62,6.53,17.75,17.75,0,0,1-13.9,18.28l-.81,3.87-42.89,14-7.26-22.2-4.82-14.8A27.88,27.88,0,0,1,1249.52,446.19Z"/><path class="cls-16" d="M1268.67,494.91a18,18,0,0,1,21.52-22.77l1.2,3.69c.85-.1,1.69-.18,2.52-.23h0v0h.63c.35,0,.75.08,1.19.15a7.06,7.06,0,0,1,5.62,6.53,17.75,17.75,0,0,1-13.9,18.28l-.81,3.87-6.69,2.18A18,18,0,0,1,1268.67,494.91Z"/><path class="cls-16" d="M1275.28,488.62c-.5-9.2,10-12.56,18.65-13h0v0h.62c.35,0,.76.08,1.2.15a7.07,7.07,0,0,1,5.62,6.53h0a17.77,17.77,0,0,1-16.78,18.7l-.88,0C1276.71,500.9,1275.45,491.71,1275.28,488.62Z"/><path class="cls-19" d="M1287,482.34a5.47,5.47,0,0,1,4.79-6.8c.61-.06,1.22-.11,1.82-.14h0v0h.63c.35,0,.75.07,1.19.14a7.08,7.08,0,0,1,5.4,5.17,5.78,5.78,0,0,1-4,4.75l-2.36.73a5.94,5.94,0,0,1-7.27-3.29A4,4,0,0,1,1287,482.34Z"/><polygon class="cls-10" points="1243.92 519.18 1291.25 504.67 1288.35 500.39 1242.63 514.99 1243.92 519.18"/><path class="cls-16" d="M1228.56,461.67a33.2,33.2,0,0,1,6.84-.27l3.31.36a71.51,71.51,0,0,0,.52,24.63,5.51,5.51,0,0,1-6.3,6.47h0a9.63,9.63,0,0,1-8-9.77l.13-16.67A4.27,4.27,0,0,1,1228.56,461.67Z"/></g><path class="cls-20" d="M590.22,519.37h32.94a0,0,0,0,1,0,0v32.81a0,0,0,0,1,0,0h-17a15.93,15.93,0,0,1-15.93-15.93V519.37A0,0,0,0,1,590.22,519.37Z" transform="translate(-194.45 420.47) rotate(-33.26)"/><path class="cls-15" d="M1071.93,327.36l-14.38,3.22v-27.1l14-.15C1068.28,316.54,1070.24,317.59,1071.93,327.36Z"/><path class="cls-15" d="M1048.62,335.42c2.17,10.43-16.17,20.46-29.43,23.22s-31,1.5-33.13-8.93,4.23-23.59,22.56-29C1021.61,316.88,1046.45,325,1048.62,335.42Z"/><path class="cls-15" d="M1071.64,326c3.79,9.43-3.68,19.31-14.79,26.59s-17.5,3.8-23.33-5.11-3.68-17.18,7.43-24.45S1067.66,316.1,1071.64,326Z"/><polygon class="cls-16" points="1029.36 338.61 1057.13 338.36 1064.16 391.67 1044.76 396.39 1026.42 380.83 1029.36 338.61"/><path class="cls-20" d="M1068,326.93V306.82c0-9.2-13.5-20.44-25.76-20.45H1034c-9.63,0-9.88,11.21-9.89,20.41l0,25.32c0,9.35,2.35,18.27,10,24.07,2.23,1.68,21.86,1.69,24,0,5.86-4.49,8.15-10.83,9.33-17.76C1067.82,336.69,1068,328.85,1068,326.93Z"/><circle class="cls-20" cx="1024.13" cy="327.36" r="4.94"/><circle class="cls-12" cx="1020.72" cy="332.3" r="2.74"/><path class="cls-15" d="M1022.48,285.9c-2.11,4.77-6.89,8.34-11,10.39a19.45,19.45,0,0,0-10.38,18.36c.42,9.68,6,17.12,15.09,17.13,12.62,0,14.57-8.38,14.76-12.58a26.82,26.82,0,0,1,1.81-8.86c3-7.4,10.07-17.48,26-9.8C1071.07,277.12,1035.65,256.15,1022.48,285.9Z"/><path class="cls-15" d="M1058.78,300.54c7.67-3.4,9,2.26,9.27,7.88.37,6.72-1.15,11.6,1.71,10.31,0,0,6.17-29.6-4.2-35.91C1056.55,277.34,1052.73,287.32,1058.78,300.54Z"/><path class="cls-21" d="M1068.58,750.7h0a8.19,8.19,0,0,0,5.52,10.17l31.76,9.42a8.16,8.16,0,0,0,10.16-5.51h0a8.16,8.16,0,0,0-5.51-10.16l-31.76-9.43A8.19,8.19,0,0,0,1068.58,750.7Zm9.82,6.29a3.32,3.32,0,1,1,3.07-1.67A3.33,3.33,0,0,1,1078.4,757Zm13.71,4.06a3.32,3.32,0,1,1,3.07-1.66A3.27,3.27,0,0,1,1092.11,761.05Zm13.71,4.07a3.32,3.32,0,1,1,3.07-1.66A3.27,3.27,0,0,1,1105.82,765.12Z"/><path class="cls-21" d="M1092.85,738.88h0a8.18,8.18,0,0,0,5.51,10.17l31.76,9.42a8.19,8.19,0,0,0,10.17-5.51h0a8.19,8.19,0,0,0-5.52-10.17L1103,733.37A8.16,8.16,0,0,0,1092.85,738.88Zm9.81,6.28a3.32,3.32,0,0,1-2.69-4.95,3.28,3.28,0,0,1,3.08-1.67,3.31,3.31,0,0,1,2.68,5A3.27,3.27,0,0,1,1102.66,745.16Zm13.71,4.07a3.31,3.31,0,0,1-2.68-5,3.27,3.27,0,0,1,3.07-1.66,3.32,3.32,0,1,1-.39,6.62Zm13.71,4.07a3.32,3.32,0,0,1-2.68-5,3.27,3.27,0,0,1,3.07-1.66,3.32,3.32,0,1,1-.39,6.62Z"/><path class="cls-21" d="M811.72,738.88h0a8.19,8.19,0,0,0,5.51,10.17L849,758.47A8.17,8.17,0,0,0,859.16,753h0a8.18,8.18,0,0,0-5.51-10.17l-31.76-9.42A8.18,8.18,0,0,0,811.72,738.88Zm9.82,6.28a3.32,3.32,0,0,1-2.69-4.95,3.28,3.28,0,0,1,3.07-1.67,3.32,3.32,0,0,1,2.69,5A3.28,3.28,0,0,1,821.54,745.16Zm13.71,4.07a3.32,3.32,0,0,1-2.69-5,3.32,3.32,0,1,1,2.69,5ZM849,753.3a3.32,3.32,0,0,1-2.69-5,3.32,3.32,0,1,1,2.69,5Z"/><path class="cls-21" d="M551,762.12h0a8.16,8.16,0,0,0,5.51,10.16l31.76,9.42a8.18,8.18,0,0,0,10.17-5.51h0A8.18,8.18,0,0,0,592.91,766l-31.76-9.43A8.18,8.18,0,0,0,551,762.12Zm9.82,6.28a3.32,3.32,0,1,1,3.07-1.67A3.32,3.32,0,0,1,560.81,768.4Zm13.71,4.07a3.32,3.32,0,1,1,3.07-1.67A3.33,3.33,0,0,1,574.52,772.47Zm13.71,4.06a3.32,3.32,0,1,1,3.07-1.66A3.32,3.32,0,0,1,588.23,776.53Z"/><polygon class="cls-22" points="954.44 512.03 1067.68 501.55 1031.53 560.79 971.98 558.95 954.44 512.03"/><path class="cls-22" d="M1004.33,491.27l-37.87-6.58s-45.1,78.33,20,89.63l37.46,10,11.17-85.82Z"/><line class="cls-23" x1="1103.65" y1="455.91" x2="1145" y2="493.85"/><path class="cls-16" d="M1159.81,481.68l-14.28-9.81-.77-.46-18.37,28.37,14.18,11.44a12.15,12.15,0,0,0,17.15-2.74l5.5-7.7A13.58,13.58,0,0,0,1159.81,481.68Z"/><path class="cls-19" d="M801.27,413.31c6,8.85,12.53,17.32,19.1,25.72s13.39,16.58,20.21,24.77,13.74,16.27,20.72,24.31,14.06,16,21.34,23.79a17.82,17.82,0,0,1-26,24.33c-.29-.32-.6-.68-.87-1-6.68-8.31-13.58-16.42-20.53-24.49s-14-16-21.14-24S799.81,471,792.42,463.27s-14.86-15.3-22.77-22.54a21.06,21.06,0,0,1,28.45-31.07A22.25,22.25,0,0,1,801.27,413.31Z"/><path class="cls-24" d="M886.18,548l13.7-2.22a8.42,8.42,0,0,0,7-9.55h0a8.41,8.41,0,0,0-8.63-7.15l-13.61.5"/><line class="cls-25" x1="894.5" y1="528.79" x2="872.32" y2="531.03"/><path class="cls-24" d="M615.19,557l13.71-2.22a8.4,8.4,0,0,0,7-9.54h0a8.4,8.4,0,0,0-8.62-7.16l-13.61.51"/><line class="cls-25" x1="623.52" y1="537.74" x2="601.34" y2="539.98"/><path class="cls-24" d="M1160.5,519.24l13.82-1.34a8.39,8.39,0,0,0,7.57-9.07h0a8.39,8.39,0,0,0-8.14-7.69l-13.62-.38"/><line class="cls-25" x1="1170.06" y1="500.56" x2="1147.78" y2="501.37"/><polyline class="cls-24" points="1189.19 581.51 1172.68 517.87 1127.53 522.26"/><line class="cls-25" x1="1151.73" y1="520.04" x2="1120.52" y2="522.92"/><line class="cls-26" x1="425.67" y1="638.15" x2="154.78" y2="796.13"/><line class="cls-26" x1="964.26" y1="614.03" x2="427.92" y2="636.74"/><polyline class="cls-27" points="1291.14 800.52 1230.8 710.42 1176.79 535.5"/><line class="cls-28" x1="417.01" y1="605.18" x2="459.75" y2="787.46"/><path class="cls-8" d="M461,611.75H386.41a8.38,8.38,0,0,1-8.37-8.38h0a8.38,8.38,0,0,1,7.22-8.29l60.11-8.38a19.13,19.13,0,0,1,21.77,18.95h0A6.1,6.1,0,0,1,461,611.75Z"/><line class="cls-28" x1="687.77" y1="605.18" x2="730.51" y2="787.46"/><path class="cls-8" d="M731.81,611.75H657.18a8.38,8.38,0,0,1-8.38-8.38h0a8.38,8.38,0,0,1,7.22-8.29l60.12-8.38a19.13,19.13,0,0,1,21.77,18.95h0A6.1,6.1,0,0,1,731.81,611.75Z"/><line class="cls-28" x1="962.56" y1="598.57" x2="1006.97" y2="787.46"/><path class="cls-8" d="M998.27,601.76H923.64a8.38,8.38,0,0,1-8.37-8.38h0a8.38,8.38,0,0,1,7.21-8.29l60.12-8.38a19.13,19.13,0,0,1,21.77,18.95h0A6.1,6.1,0,0,1,998.27,601.76Z"/><path class="cls-29" d="M1219.27,721.61a105.53,105.53,0,0,1,139.92-3.94"/><path class="cls-30" d="M1038.54,805A225.44,225.44,0,0,0,1077,792.45h0a79.9,79.9,0,0,0,36.4-31.35l87.51-141.36"/><path class="cls-8" d="M1291.45,652.37a146.19,146.19,0,1,0,146.19,146.19A146.19,146.19,0,0,0,1291.45,652.37Zm0,278.87a132.68,132.68,0,1,1,132.68-132.68A132.68,132.68,0,0,1,1291.45,931.24Z"/><circle class="cls-31" cx="1291.45" cy="798.56" r="134.22"/><path class="cls-32" d="M1149.68,824.07a143.17,143.17,0,0,1,160-168.37"/><circle class="cls-33" cx="1291.45" cy="798.56" r="131.2"/><circle class="cls-8" cx="1291.45" cy="798.56" r="10.85"/><circle class="cls-21" cx="152.35" cy="798.56" r="19.58"/><path class="cls-8" d="M298.54,798.56A146.19,146.19,0,1,0,152.35,944.75,146.19,146.19,0,0,0,298.54,798.56Zm-278.87,0A132.69,132.69,0,1,1,152.35,931.24,132.68,132.68,0,0,1,19.67,798.56Z"/><circle class="cls-31" cx="152.35" cy="798.56" r="134.22"/><path class="cls-32" d="M125.89,656.79A143.21,143.21,0,0,1,295.58,797.4"/><path class="cls-32" d="M178.69,656.79a143.17,143.17,0,0,0-168.37,160"/><circle class="cls-33" cx="152.35" cy="798.56" r="131.2"/><circle class="cls-8" cx="152.35" cy="798.56" r="7.86"/><path class="cls-21" d="M1006.72,778.37a31.6,31.6,0,1,0,31.61,31.6A31.6,31.6,0,0,0,1006.72,778.37Zm0,54.45A22.85,22.85,0,1,1,1029.57,810,22.85,22.85,0,0,1,1006.72,832.82Z"/><circle class="cls-8" cx="1006.72" cy="810" r="6.38"/><circle class="cls-34" cx="1006.72" cy="810" r="22.72"/><path class="cls-21" d="M1082.66,832.07h0a8.18,8.18,0,0,0,8.1,8.25l33.13.29a8.18,8.18,0,0,0,8.25-8.11h0a8.17,8.17,0,0,0-8.1-8.24l-33.13-.29A8.17,8.17,0,0,0,1082.66,832.07Zm11.17,3.33a3.32,3.32,0,0,1-3.95-4,3.28,3.28,0,0,1,2.49-2.44,3.32,3.32,0,0,1,1.46,6.47Zm14.3.12a3.32,3.32,0,0,1-4-4,3.28,3.28,0,0,1,2.49-2.45,3.32,3.32,0,0,1,3.95,4A3.28,3.28,0,0,1,1108.13,835.52Zm14.3.13a3.32,3.32,0,0,1-4-4,3.28,3.28,0,0,1,2.49-2.45,3.32,3.32,0,0,1,1.46,6.47Z"/><path class="cls-21" d="M802.41,809.31h0a8.18,8.18,0,0,0,9.54,6.54l32.57-6.07a8.19,8.19,0,0,0,6.54-9.54h0a8.19,8.19,0,0,0-9.54-6.54L809,799.78A8.16,8.16,0,0,0,802.41,809.31Zm11.6,1.12a3.32,3.32,0,1,1,2-2.88A3.27,3.27,0,0,1,814,810.43Zm14.06-2.62a3.32,3.32,0,1,1,2-2.88A3.28,3.28,0,0,1,828.07,807.81Zm14.06-2.62a3.32,3.32,0,1,1,2-2.88A3.32,3.32,0,0,1,842.13,805.19Z"/><path class="cls-5" d="M1310.79,633.65l-61,4a10.8,10.8,0,0,1-11.06-7.69l-22.21-74.15a10.81,10.81,0,0,1,9.65-13.9l78.32-5.08a10.82,10.82,0,0,1,11.5,10.09l4.89,75.27A10.82,10.82,0,0,1,1310.79,633.65Z"/><rect class="cls-5" x="1179.31" y="578.8" width="45.59" height="7.4" transform="translate(-92.95 255.08) rotate(-11.66)"/><rect class="cls-6" x="1181.19" y="588.22" width="22.54" height="9.08" transform="translate(-95.22 253.34) rotate(-11.66)"/><path class="cls-21" d="M732.82,778.4a31.6,31.6,0,1,0,31.6,31.6A31.6,31.6,0,0,0,732.82,778.4Zm0,54.45A22.85,22.85,0,1,1,755.67,810,22.85,22.85,0,0,1,732.82,832.85Z"/><circle class="cls-8" cx="732.82" cy="810" r="6.38"/><circle class="cls-34" cx="732.82" cy="810" r="22.72"/><path class="cls-21" d="M458.52,778.3a31.61,31.61,0,1,0,31.6,31.61A31.6,31.6,0,0,0,458.52,778.3Zm0,54.46a22.85,22.85,0,1,1,22.85-22.85A22.85,22.85,0,0,1,458.52,832.76Z"/><circle class="cls-8" cx="458.52" cy="809.91" r="6.38"/><circle class="cls-34" cx="458.52" cy="809.91" r="22.72"/><path class="cls-35" d="M151.5,777.08h856.06a33.25,33.25,0,0,1,33.25,33.26h0a33.25,33.25,0,0,1-33.25,33.25H408.38l-260.92-24a21.45,21.45,0,0,1-17.4-21.06h0A21.45,21.45,0,0,1,151.5,777.08Z"/><polyline class="cls-24" points="642.13 619.46 625.61 555.81 580.46 560.2"/><line class="cls-25" x1="604.66" y1="557.98" x2="573.45" y2="560.86"/><line class="cls-36" x1="631.53" y1="578.19" x2="642.17" y2="624.05"/><polyline class="cls-24" points="908.63 611.26 892.11 547.62 846.96 552.01"/><line class="cls-25" x1="871.16" y1="549.78" x2="839.95" y2="552.66"/><line class="cls-36" x1="898.03" y1="569.99" x2="908.67" y2="615.86"/><path class="cls-37" d="M1093.25,398.2l27.53,43-27.16,34.6s-44-47.4-44.07-47.48l11.88-52A50.23,50.23,0,0,1,1093.25,398.2Z"/><path class="cls-21" d="M1028.81,369.91l13.71,14.23a10.68,10.68,0,0,0,18-4.78l1.09-4.27,11.75,5.36c13.18,18.26,13.43,42.82,9.94,53.48l-16.21,70.5L966.25,485.18,982.15,403a41.36,41.36,0,0,1,46.66-33Z"/><polygon class="cls-37" points="1019.19 495.28 966.25 485.18 982.15 402.96 1019.19 495.28"/><path class="cls-12" d="M1028.81,369.91l13.71,14.23a10.68,10.68,0,0,0,18-4.78l1.09-4.27h0a52.94,52.94,0,0,1,9,39.23L1054.54,512l-33.82-16.43,8.09-125.66Z"/><path class="cls-16" d="M1156.17,499.73l0-6.54-13-2.55-.14,9a6.55,6.55,0,0,0,6.51,6.58h0A6.55,6.55,0,0,0,1156.17,499.73Z"/><polyline class="cls-38" points="1013.42 395.34 1033.82 489.31 1104.54 518.07"/><path class="cls-16" d="M1107.85,537.67l-15.95-6.79-.8-.4L1105.72,500,1134,510l-8.18,20.25A13.58,13.58,0,0,1,1107.85,537.67Z"/><path class="cls-16" d="M1124.58,509.51h6.54a6.54,6.54,0,0,1,6.54,6.54v0a6.54,6.54,0,0,1-6.54,6.54h-6.54a0,0,0,0,1,0,0V509.51A0,0,0,0,1,1124.58,509.51Z" transform="translate(243.98 -355) rotate(19.95)"/><path class="cls-21" d="M1028.81,369.91l25.73,105.38-44.22,4.12-18.13-96.26C1001.83,372.57,1014.11,368.32,1028.81,369.91Z"/><rect class="cls-39" x="778" y="407.34" width="26.48" height="22.97" transform="matrix(0.86, -0.5, 0.5, 0.86, -103.23, 456.2)"/><rect class="cls-2" x="783.83" y="425.06" width="26.48" height="7.5" transform="translate(-107.47 460.5) rotate(-30.29)"/><rect class="cls-19" x="790.03" y="660.59" width="45.32" height="54.35" transform="translate(213.14 -192.02) rotate(15.49)"/><path class="cls-8" d="M806.83,713h0a8.2,8.2,0,0,1,7.87-6l13.72,0a4.59,4.59,0,0,1,4.52,3.7l1,5.27a15.72,15.72,0,0,0,4.8,8.54c3.37,3.08,7.91,7.13,9,7.59,6.77,2.77,8.86,8.36,6.54,11.52L779.2,722.37l4.41-15.77H784Z"/><path class="cls-40" d="M789.1,677l2.79-85.29,17.87,37-86.41-45.21a36,36,0,0,1-18.84-25.89l-1-5.9-7.1-43,87.24-5-2.15,43.52-19.81-31.79L845.12,566l4.53,2.74A30.23,30.23,0,0,1,863,603L839.1,685Z"/><path class="cls-41" d="M811.25,681l12.17-76.21a10.76,10.76,0,0,0-5.34-11.07l-78.4-44.2-2.48-43.25"/><path class="cls-41" d="M815.74,682.1l12.52-79.61a10.78,10.78,0,0,0-5.35-11.07l-78.39-44.2L742,504"/><rect class="cls-2" x="776.05" y="680.13" width="64.66" height="11.6" transform="translate(118.35 -118.95) rotate(9.08)"/><polygon class="cls-16" points="797.58 792.85 838.39 783.04 808.51 707.91 750.3 711.74 797.58 792.85"/><path class="cls-15" d="M772.39,486.65l-16.18,56-4.05,14-1,3.5c-.09.29-.18.62-.22.78l-.27,1.08-.64,2.37-.74,2.73c-.16.62-.25,1-.3,1.3-.09.49,0,.37,0-.19a10.38,10.38,0,0,0-1.33-4.74c-.31-.51-.48-.66-.37-.55h0l6.08,8.8,64.38,157-45.25,22.63-87-145.72,6.08,8.8h0a73.06,73.06,0,0,1-9.23-12.34,66.31,66.31,0,0,1-6.79-15.82,68.17,68.17,0,0,1-1.81-8.6,70.46,70.46,0,0,1-.64-8.44,75.23,75.23,0,0,1,1.34-14.88c.4-2.16.87-4.15,1.31-5.91s.88-3.3,1.19-4.4l.77-2.91,1-3.6,4.15-14.4L699.5,465.6Z"/><path class="cls-42" d="M740.43,479.74l-26.17,71.49c-1.77,7.75-6.36,20.58,4.36,38l76.46,150.87"/><path class="cls-42" d="M735.69,479.74l-26.18,71.49c-1.77,7.75-6.35,20.58,4.37,38l76.46,150.87"/><path class="cls-12" d="M746.34,378l33,4.32,4,1.35C804.42,393.4,800,426,798.21,438.79l-13.78,72.26-97.61-16.19,14.66-88.08a35.54,35.54,0,0,1,39.34-29.45Z"/><polygon class="cls-16" points="686.07 495.36 783.48 511.3 784.91 500.99 688.11 484.82 686.07 495.36"/><path class="cls-43" d="M742.34,546.56c26.23-44.86,48.62-131.37,42-163"/><path class="cls-16" d="M757.82,412.29c7.92,11,16.28,21.61,24.72,32.15s17.13,20.86,25.82,31.18c17.41,20.62,35.06,41,53.28,60.94l-26.87,23.35c-17.17-20.83-34.92-41.16-52.9-61.28-9-10.05-18-20.1-27.26-29.93s-18.6-19.59-28.38-29Z"/><path class="cls-2" d="M778.79,382.19l-33-4.32-4-.49v1.06a19.51,19.51,0,0,0,38.53,4.34Z"/><g class="cls-44"><line class="cls-45" x1="737.72" y1="383.13" x2="749.67" y2="380.23"/><line class="cls-45" x1="739.99" y1="387.99" x2="751" y2="382.51"/><line class="cls-45" x1="743.28" y1="392.22" x2="752.81" y2="384.44"/><line class="cls-45" x1="747.43" y1="395.61" x2="755" y2="385.93"/><line class="cls-45" x1="752.22" y1="398.01" x2="757.46" y2="386.89"/><line class="cls-45" x1="757.43" y1="399.29" x2="760.08" y2="387.28"/><line class="cls-45" x1="762.78" y1="399.38" x2="762.72" y2="387.09"/><line class="cls-45" x1="768.03" y1="398.29" x2="765.25" y2="386.31"/><line class="cls-45" x1="772.91" y1="396.07" x2="767.54" y2="385"/><line class="cls-45" x1="777.35" y1="392.24" x2="769.49" y2="383.21"/><line class="cls-45" x1="781.14" y1="387.76" x2="770.55" y2="380.9"/></g><rect class="cls-2" x="768.76" y="736.46" width="54.2" height="11.6" transform="translate(-247.72 433.58) rotate(-26.53)"/><path class="cls-46" d="M814.86,781.44h0a8.2,8.2,0,0,1,4.6-8.76l12.42-5.85a4.58,4.58,0,0,1,5.65,1.44l3.17,4.34a15.76,15.76,0,0,0,8,5.71c4.35,1.36,10.18,3.11,11.38,3,7.3-.35,11.56,3.84,10.8,7.68L793.8,801.63l-2.67-16.15.37-.18Z"/><rect class="cls-2" x="719.7" y="420.15" width="42.77" height="9.39" transform="translate(-105.47 539.01) rotate(-37.5)"/><path class="cls-16" d="M834.26,558.43l-10.68-13.65-.51-.73,27.51-19.6,19.9,22.42-17,13.77A13.56,13.56,0,0,1,834.26,558.43Z"/><path class="cls-16" d="M858.54,544.22h6.54a6.54,6.54,0,0,1,6.54,6.54v0a6.54,6.54,0,0,1-6.54,6.54h-6.54a0,0,0,0,1,0,0V544.22A0,0,0,0,1,858.54,544.22Z" transform="translate(710.55 -463.05) rotate(48.85)"/><path class="cls-43" d="M693.61,533.06c-5.26-36.24-13.84-98.59,12.22-125.52"/><path class="cls-16" d="M662.37,536.27H765.23a0,0,0,0,1,0,0v4.54a51.43,51.43,0,0,1-51.43,51.43h0a51.43,51.43,0,0,1-51.43-51.43v-4.54A0,0,0,0,1,662.37,536.27Z" transform="translate(99.09 -106.58) rotate(9.17)"/><path class="cls-47" d="M752.45,542.21l-1.45,9a10.13,10.13,0,0,1-11.61,8.38h0A10.12,10.12,0,0,1,731,548l1.45-9"/><g class="cls-48"><g class="cls-49"><g class="cls-50"><g class="cls-51"><rect class="cls-52" x="727.14" y="529.35" width="30.35" height="30.35" transform="translate(86.42 1190.53) rotate(-80.83)"/><g class="cls-53"><line class="cls-54" x1="760.63" y1="526.1" x2="722.33" y2="553.74"/><line class="cls-54" x1="763.14" y1="529.57" x2="724.84" y2="557.22"/><line class="cls-54" x1="759.39" y1="526.99" x2="721.09" y2="554.64"/><line class="cls-54" x1="755.64" y1="524.4" x2="717.34" y2="552.05"/><line class="cls-54" x1="751.89" y1="521.82" x2="713.59" y2="549.47"/><line class="cls-54" x1="748.14" y1="519.24" x2="709.84" y2="546.89"/><line class="cls-54" x1="765.65" y1="533.04" x2="727.35" y2="560.69"/><line class="cls-54" x1="768.15" y1="536.52" x2="729.86" y2="564.17"/><line class="cls-54" x1="770.66" y1="539.99" x2="732.36" y2="567.64"/><line class="cls-54" x1="773.17" y1="543.46" x2="734.87" y2="571.11"/></g></g></g></g></g><path class="cls-47" d="M704,534.39l-1.45,9A10.13,10.13,0,0,1,691,551.77h0a10.12,10.12,0,0,1-8.38-11.6l1.46-9"/><g class="cls-55"><g class="cls-56"><g class="cls-50"><g class="cls-57"><rect class="cls-52" x="678.73" y="521.53" width="30.35" height="30.35" transform="translate(53.44 1136.16) rotate(-80.83)"/><g class="cls-58"><line class="cls-54" x1="712.22" y1="518.28" x2="673.92" y2="545.93"/><line class="cls-54" x1="714.72" y1="521.75" x2="676.43" y2="549.4"/><line class="cls-54" x1="710.97" y1="519.17" x2="672.68" y2="546.82"/><line class="cls-54" x1="707.23" y1="516.59" x2="668.93" y2="544.23"/><line class="cls-54" x1="703.48" y1="514" x2="665.18" y2="541.65"/><line class="cls-54" x1="699.73" y1="511.42" x2="661.43" y2="539.07"/><line class="cls-54" x1="717.23" y1="525.22" x2="678.93" y2="552.87"/><line class="cls-54" x1="719.74" y1="528.7" x2="681.44" y2="556.35"/><line class="cls-54" x1="722.25" y1="532.17" x2="683.95" y2="559.82"/><line class="cls-54" x1="724.76" y1="535.65" x2="686.46" y2="563.29"/></g></g></g></g></g><polygon class="cls-12" points="705.14 443.54 695.15 442.11 702.21 403.54 712.21 404.97 705.14 443.54"/><rect class="cls-11" x="809.94" y="519.33" width="35.48" height="9.61" transform="translate(-142.22 662.25) rotate(-40.45)"/><circle class="cls-59" cx="827.81" cy="523.54" r="9.15"/><polyline class="cls-60" points="833.99 522.25 827.94 525.51 823.07 520.87"/><rect class="cls-4" x="446.66" y="372.76" width="59.42" height="172.62" transform="matrix(0.99, 0.15, -0.15, 0.99, 74.38, -66.36)"/><polygon class="cls-17" points="520.99 646.13 532.17 733.78 581.33 726.44 569.83 636.19 520.99 646.13"/><path class="cls-2" d="M521.67,742.55l6.38-26.94a1.6,1.6,0,0,1,2.09-1.36l22.48,8.12c15.55,5.51,24.34,1.36,24.34,1.36a6.21,6.21,0,0,1,5.72,1.54s18.67,19.18,21.2,19.86l6.76,1.8c5.81,1.55,10,7.47,9.35,13.21l-.94,8.39Z"/><line class="cls-61" x1="530.01" y1="746.73" x2="549.37" y2="730.75"/><line class="cls-61" x1="543.59" y1="750.46" x2="563.75" y2="734.72"/><polygon class="cls-11" points="618.34 774.83 520.8 750.32 521.67 742.55 619.05 768.53 618.34 774.83"/><path class="cls-12" d="M593.12,742.86a2,2,0,0,0,.92,2.72,2,2,0,0,0,2.77-.73,2.11,2.11,0,0,0-3.69-2Z"/><path class="cls-12" d="M585,736.22a2.1,2.1,0,0,0,3,2.93,2.11,2.11,0,0,0-3-2.93Z"/><path class="cls-12" d="M578.75,727.82a2.11,2.11,0,0,0,2.34,3.49,2.11,2.11,0,0,0-2.34-3.49Z"/><polyline class="cls-61" points="525.78 724.43 571.63 736.29 593.34 755.56 619.64 762.43"/><path class="cls-8" d="M514.91,662.39l-9.84-50.48,7.73,16.74-59.87-58.32,60.95-52.76L563,585.17l2.67,3.68a27.56,27.56,0,0,1,5,13.06L576.36,653Z"/><path class="cls-46" d="M441.83,521.05,404,514.48s-45.1,78.33,20,89.63l3.36.58,18-83.06Z"/><polygon class="cls-46" points="405.86 540.98 513.26 531.04 519.95 531.03 478.97 587.22 422.49 585.48 405.86 540.98"/><path class="cls-20" d="M536.66,371.57c7.41,11.69,14.34,23.66,21.1,35.71,3.43,6,6.7,12.1,10,18.15s6.5,12.21,9.75,18.31l9.5,18.45,4.63,9.29c1.55,3.1,3.08,6.2,4.57,9.33,6,12.46,11.92,25,17.29,37.87L586,534.25c-8.24-11.22-16-22.72-23.55-34.33-1.91-2.89-3.78-5.8-5.64-8.72l-5.58-8.76-10.91-17.65c-3.55-5.93-7.16-11.83-10.66-17.79s-7-11.91-10.4-17.94c-6.85-12-13.53-24.11-19.73-36.48Z"/><line class="cls-62" x1="520.35" y1="384.03" x2="558.6" y2="456.7"/><path class="cls-7" d="M527.35,530.83l-131.83,9.78L506.09,357.34c5,.77,3.63.46,10.48,1.22a35,35,0,0,1,30.67,40Z"/><path class="cls-4" d="M446.69,538,387,542.7l32.36-156.22c2-22,22.61-37.76,44.47-34.3l6.46.78,15.93,15.55Z"/><polygon class="cls-20" points="454.52 675.24 521.33 812.38 571.68 798.63 509.85 660.77 454.52 675.24"/><polygon class="cls-11" points="508.97 784.8 521.33 812.38 571.68 798.63 561.26 769.33 508.97 784.8"/><polygon class="cls-2" points="511.99 791.36 564 777.32 563.29 775.04 510.93 789.17 511.99 791.36"/><path class="cls-2" d="M524.62,832.14l-6.5-26.92a1.6,1.6,0,0,1,1.25-2.16l23.71-2.93c16.37-2.12,22.33-9.8,22.33-9.8a6.23,6.23,0,0,1,5.8-1.21s25.32,8.65,27.89,8.11l6.84-1.45c5.88-1.24,12.29,2.13,14.32,7.55l3,7.9Z"/><line class="cls-61" x1="533.95" y1="832.09" x2="543.99" y2="809.08"/><line class="cls-61" x1="547.75" y1="829.27" x2="558.6" y2="806.11"/><polygon class="cls-11" points="625.43 817.17 527.36 839.46 524.62 832.14 623.21 811.23 625.43 817.17"/><path class="cls-12" d="M588.47,800.07a2.11,2.11,0,0,0,4.2.12,2.12,2.12,0,0,0-4.2-.12Z"/><path class="cls-12" d="M578.26,797.81a2.1,2.1,0,0,0,4,1.26,2.11,2.11,0,0,0-4-1.26Z"/><path class="cls-12" d="M568.85,793.17a2.11,2.11,0,0,0,3.67,2.05,2.11,2.11,0,0,0-3.67-2.05Z"/><polyline class="cls-61" points="520.09 814.12 566.34 803.95 594.42 811.3 620.98 805.52"/><line class="cls-63" x1="428.98" y1="566.17" x2="481.24" y2="677.5"/><path class="cls-20" d="M561.83,543.23s39.8-.84,37.68,30.23l-36.87,1.75a5.89,5.89,0,0,1-6-7.1Z"/><path class="cls-20" d="M482.81,390.92c9.77,12.94,19.06,26.22,28.2,39.6,4.61,6.66,9.06,13.43,13.57,20.16s8.87,13.56,13.31,20.34L551,491.53l6.41,10.35c2.14,3.44,4.27,6.89,6.35,10.37,8.43,13.87,16.67,27.87,24.43,42.2l-27.23,18.7c-10.6-12.38-20.7-25.1-30.62-37.94-2.5-3.19-5-6.42-7.41-9.65l-7.35-9.7-14.46-19.55c-4.73-6.58-9.53-13.11-14.21-19.72s-9.39-13.21-13.95-19.9c-9.21-13.33-18.27-26.77-26.85-40.54Z"/><polygon class="cls-4" points="484.53 484.82 418.99 387.97 504.54 376.05 545.38 465.06 484.53 484.82"/><rect class="cls-8" x="577.04" y="512.76" width="35.71" height="10.58" transform="translate(-175.99 350.69) rotate(-28.8)"/><path class="cls-64" d="M602.35,520.44l-6.89,3.79a2.89,2.89,0,0,1-3.93-1.14l-2.7-4.91a2.89,2.89,0,0,1,1.14-3.93l6.89-3.79"/><line class="cls-65" x1="591.52" y1="520.03" x2="593.58" y2="518.83"/><line class="cls-66" x1="1215.9" y1="536.51" x2="1317.6" y2="530.17"/><line class="cls-66" x1="1304.65" y1="532.73" x2="1304.65" y2="541.64"/><line class="cls-66" x1="1224.24" y1="536.6" x2="1224.24" y2="545.51"/><g class="cls-67"><line class="cls-68" x1="1214.36" y1="560.21" x2="1324.44" y2="550.89"/><line class="cls-69" x1="1213.3" y1="637.08" x2="1256.74" y2="556.4"/><line class="cls-69" x1="1228.82" y1="643.29" x2="1276.32" y2="554.97"/><line class="cls-69" x1="1248.39" y1="641.85" x2="1295.89" y2="553.54"/><line class="cls-69" x1="1267.96" y1="640.42" x2="1315.46" y2="552.1"/><line class="cls-69" x1="1287.54" y1="638.99" x2="1335.04" y2="550.67"/><line class="cls-69" x1="1307.11" y1="637.56" x2="1350.55" y2="556.88"/><line class="cls-69" x1="1356.32" y1="624.97" x2="1299.93" y2="552.75"/><line class="cls-69" x1="1342.06" y1="633.7" x2="1280.39" y2="554.62"/><line class="cls-69" x1="1322.53" y1="635.58" x2="1260.86" y2="556.5"/><line class="cls-69" x1="1302.99" y1="637.46" x2="1241.32" y2="558.38"/><line class="cls-69" x1="1283.46" y1="639.33" x2="1221.79" y2="560.26"/><line class="cls-69" x1="1263.92" y1="641.21" x2="1207.54" y2="568.98"/></g><path class="cls-19" d="M867.77,519.25h6.54a6.54,6.54,0,0,1,6.54,6.54v0a6.54,6.54,0,0,1-6.54,6.54h-6.54a0,0,0,0,1,0,0V519.25A0,0,0,0,1,867.77,519.25Z" transform="translate(694.91 -478.54) rotate(48.85)"/><path class="cls-8" d="M458.52,787.93A22.1,22.1,0,1,0,480.61,810,22.11,22.11,0,0,0,458.52,787.93Zm-3.86,35.84a1.79,1.79,0,0,1-1.65,1.09,1.7,1.7,0,0,1-.69-.14,15.94,15.94,0,0,1-8.59-8.73,1.78,1.78,0,1,1,3.31-1.33,12.39,12.39,0,0,0,6.67,6.77A1.8,1.8,0,0,1,454.66,823.77Zm-.77-25.22a12.45,12.45,0,0,0-6.78,6.67,1.77,1.77,0,0,1-1.64,1.09,1.85,1.85,0,0,1-.69-.14,1.78,1.78,0,0,1-.95-2.34,15.94,15.94,0,0,1,8.73-8.59,1.78,1.78,0,1,1,1.33,3.31Zm19.32,17.68a16,16,0,0,1-8.73,8.59,1.79,1.79,0,0,1-1.34-3.31,12.37,12.37,0,0,0,6.78-6.67,1.79,1.79,0,1,1,3.29,1.39Zm-.89-9.84a1.72,1.72,0,0,1-.66.13A1.78,1.78,0,0,1,470,805.4a12.45,12.45,0,0,0-6.67-6.78,1.78,1.78,0,1,1,1.39-3.28,16,16,0,0,1,8.59,8.73A1.78,1.78,0,0,1,472.32,806.39Z"/><path class="cls-8" d="M732.82,787.93A22.1,22.1,0,1,0,754.91,810,22.11,22.11,0,0,0,732.82,787.93ZM729,823.77a1.79,1.79,0,0,1-1.65,1.09,1.7,1.7,0,0,1-.69-.14A15.94,15.94,0,0,1,718,816a1.78,1.78,0,0,1,3.31-1.33,12.42,12.42,0,0,0,6.66,6.77A1.79,1.79,0,0,1,729,823.77Zm-.77-25.22a12.45,12.45,0,0,0-6.78,6.67,1.78,1.78,0,0,1-1.64,1.09,1.85,1.85,0,0,1-.69-.14,1.79,1.79,0,0,1-1-2.34,16,16,0,0,1,8.74-8.59,1.78,1.78,0,1,1,1.33,3.31Zm19.32,17.68a16,16,0,0,1-8.74,8.59,1.69,1.69,0,0,1-.66.13,1.78,1.78,0,0,1-.67-3.44,12.37,12.37,0,0,0,6.78-6.67,1.79,1.79,0,1,1,3.29,1.39Zm-.89-9.84a1.72,1.72,0,0,1-.66.13,1.78,1.78,0,0,1-1.66-1.12,12.45,12.45,0,0,0-6.67-6.78,1.78,1.78,0,1,1,1.39-3.28,16,16,0,0,1,8.59,8.73A1.78,1.78,0,0,1,746.62,806.39Z"/><path class="cls-8" d="M1006.72,787.93a22.1,22.1,0,1,0,22.1,22.1A22.1,22.1,0,0,0,1006.72,787.93Zm-3.86,35.84a1.78,1.78,0,0,1-1.64,1.09,1.67,1.67,0,0,1-.69-.14,16,16,0,0,1-8.6-8.73,1.78,1.78,0,0,1,3.31-1.33,12.39,12.39,0,0,0,6.67,6.77A1.79,1.79,0,0,1,1002.86,823.77Zm-.76-25.22a12.37,12.37,0,0,0-6.78,6.67,1.79,1.79,0,0,1-1.65,1.09,1.89,1.89,0,0,1-.69-.14,1.79,1.79,0,0,1-1-2.34,16,16,0,0,1,8.73-8.59,1.79,1.79,0,1,1,1.34,3.31Zm19.32,17.68a16,16,0,0,1-8.74,8.59,1.72,1.72,0,0,1-.66.13,1.78,1.78,0,0,1-.67-3.44,12.21,12.21,0,0,0,4.12-2.73,12.35,12.35,0,0,0,2.66-3.94,1.79,1.79,0,1,1,3.29,1.39Zm-.89-9.84a1.78,1.78,0,0,1-2.32-1,12.49,12.49,0,0,0-2.74-4.12,12.31,12.31,0,0,0-3.93-2.66,1.78,1.78,0,0,1,1.38-3.28,16,16,0,0,1,8.6,8.73A1.8,1.8,0,0,1,1020.53,806.39Z"/><line class="cls-28" x1="578.82" y1="630.35" x2="506.8" y2="633.4"/><line class="cls-26" x1="865.03" y1="618.52" x2="789.2" y2="621.95"/><path class="cls-22" d="M729.75,311.84H799a0,0,0,0,1,0,0V315a4.27,4.27,0,0,1-4.27,4.27H734.51a4.77,4.77,0,0,1-4.77-4.77v-2.69A0,0,0,0,1,729.75,311.84Z" transform="translate(-40.65 126.38) rotate(-9.21)"/><ellipse class="cls-19" cx="741.23" cy="351.84" rx="11.54" ry="21.26" transform="translate(-64.23 508.18) rotate(-36.38)"/><ellipse class="cls-19" cx="774.56" cy="314.23" rx="21.98" ry="22.86" transform="translate(-3.42 8.56) rotate(-0.63)"/><ellipse class="cls-19" cx="731.26" cy="362.79" rx="15.52" ry="28.28" transform="translate(36.06 790.64) rotate(-58)"/><ellipse class="cls-19" cx="720.3" cy="380.45" rx="19.07" ry="25.36" transform="translate(15.93 789.65) rotate(-58)"/><path class="cls-19" d="M699.71,366.79c8.34-7.14,19.47-7.85,24.84-1.58a11.62,11.62,0,0,1,2.33,4.4,13.25,13.25,0,0,0-3-9.24c-5.72-6.69-17.57-5.93-26.46,1.68s-11.46,19.21-5.73,25.89a12.07,12.07,0,0,0,1.49,1.46C689.42,383,692.07,373.34,699.71,366.79Z"/><path class="cls-16" d="M773.4,342.94H748.92l-2.64,39.6c9.45,10.23,19.37,14,30.58,0Z"/><path class="cls-16" d="M748.11,333.94l0-23.72c0-9.06,16.06-8.77,28.13-8.78h.85c9.47,0,14.24-.31,14.24,8.75l0,28.84c0,9.21-2.31,18-9.88,23.7-2.2,1.66-21.54,1.67-23.66,0-5.77-4.42-8-10.66-9.18-17.48C748.32,343.55,748.11,335.83,748.11,333.94Z"/><ellipse class="cls-70" cx="790.43" cy="330.65" rx="8.14" ry="7.64" transform="translate(379.62 1082.53) rotate(-84.05)"/><ellipse class="cls-71" cx="790.43" cy="330.65" rx="8.14" ry="7.64" transform="translate(379.62 1082.53) rotate(-84.05)"/><ellipse class="cls-70" cx="769.8" cy="330.03" rx="8.14" ry="7.64" transform="translate(361.74 1061.47) rotate(-84.05)"/><ellipse class="cls-71" cx="769.8" cy="330.03" rx="8.14" ry="7.64" transform="translate(361.74 1061.47) rotate(-84.05)"/><path class="cls-71" d="M783.36,328c-.79-1.35-4.29-1.73-6.5-.54"/><line class="cls-71" x1="763.29" y1="327.81" x2="747.93" y2="328.46"/><path class="cls-19" d="M790.61,305.45c-3.38,12.68-32.91-4-37.68,26.18-5.8,36.69-18.33,8.66-18.33,8.66a203.82,203.82,0,0,1,0-31.24C736.71,282,790.61,281.82,790.61,305.45Z"/><line class="cls-72" x1="748.86" y1="342.23" x2="747.47" y2="315.49"/><circle class="cls-16" cx="749.89" cy="335.43" r="4.86"/><polygon class="cls-19" points="775.89 371.5 775.25 363.82 759 363.82 775.89 371.5"/><path class="cls-73" d="M769.71,348.29s.95,5.17,7.15,4.55"/><path class="cls-74" d="M516.57,358.56c-6.85-.76-13.41-1.57-18.38-2.34l-33.75-4c2.79,13.92,15.41,24.42,30.56,24.42a31.23,31.23,0,0,0,27.89-16.8A35.26,35.26,0,0,0,516.57,358.56Z"/><path class="cls-17" d="M524.15,317.79l-6.26,37.13c-2.08,9.7-11.23,17.39-24.24,15.95-16.16-1.8-23.52-17.23-23.52-17.23l7.4-40.76Z"/><path class="cls-19" d="M470.4,325.57l7.13,5.22L475.33,280h0a12.71,12.71,0,0,0-12.08,13.32l4,27.1A7.85,7.85,0,0,0,470.4,325.57Z"/><path class="cls-17" d="M501.42,267.88c14.64-.71,27.12,11.16,27.87,26.53l1.42,29.17c.63,12.92-8.84,23.88-21.15,24.48l-14.46.71c-10,.48-18.52-7.62-19-18.12h0l-.09-1.93-1.58-32.35c-.73-15,10.24-27.67,24.51-28.37l2.51-.12Z"/><path class="cls-19" d="M469.86,282.08,469,309.79l9.09,4.89h0c11.23-7.87,5.48-23.87-.11-31.22Z"/><path class="cls-16" d="M485,320.8l-1.6-12.18-8.39.32L476,331h0l0,.47c.52,10.74,9.82,21,20.56,20.46l19.12-1.33c10.88-.91,16.18-10.62,15-24.88l-37.07,1.9A8.38,8.38,0,0,1,485,320.8Z"/><path class="cls-19" d="M486.36,267.19l9-.75A15.91,15.91,0,0,1,512.5,281h0c-11.8-1.7-25.06-1.06-40.68,3.39h0A15.91,15.91,0,0,1,486.36,267.19Z"/><path class="cls-19" d="M491.32,272.57a7.7,7.7,0,0,1-7,8.31c-4.24.36-11.24-4.1-11.59-8.34s4.57-7.66,10.31-7C487.23,266,491,268.32,491.32,272.57Z"/><circle class="cls-19" cx="495.11" cy="269.4" r="8.87"/><circle class="cls-19" cx="480.47" cy="288.42" r="10.21"/><path class="cls-19" d="M513,276.28l-.49-.62,0,.16c.47,4.74-2.72,8.91-6.73,10.93l6.82.71C516.11,284.73,515.75,279.77,513,276.28Z"/><path class="cls-19" d="M479.88,263l-.77.2.16.05c4.53,1.46,7.09,6,7.36,10.52l3.35-6C488.86,263.51,484.17,261.88,479.88,263Z"/><path class="cls-19" d="M463.38,289.11c-3.16,8.19-7.26,4.49-7.26,4.49s-.46,5.79,6,8c4.13,1.4,8.77-5.3,8.69-11.33C470.74,286.08,464.88,285.22,463.38,289.11Z"/><path class="cls-15" d="M1296.54,536.56,1285,536a13.14,13.14,0,0,1-5.8-1.67l-9.29-5.24h0a16.32,16.32,0,0,1,23.45-10.69l7.22,3.78Z"/><path class="cls-16" d="M1296.54,536.56l8.24,2.31a3.3,3.3,0,0,0,4.18-3.19v-5.12a8,8,0,0,0-5.82-7.65l-2.57-.72Z"/><path class="cls-37" d="M1028.81,369.91"/><polygon class="cls-20" points="1053.19 748.81 1077.13 802.33 1123.66 789.62 1104.32 735.44 1053.19 748.81"/><polygon class="cls-9" points="1065.7 776.84 1077.13 802.33 1123.66 789.62 1114.03 762.53 1065.7 776.84"/><polygon class="cls-12" points="1068.49 782.9 1116.57 769.92 1115.91 767.82 1067.51 780.88 1068.49 782.9"/><path class="cls-10" d="M1080.17,820.59l-6-24.88a1.47,1.47,0,0,1,1.16-2l21.91-2.71c15.13-2,20.64-9.06,20.64-9.06a5.73,5.73,0,0,1,5.35-1.12s23.41,8,25.79,7.5l6.32-1.34c5.43-1.15,11.36,2,13.23,7l2.73,7.31Z"/><polygon class="cls-11" points="1173.34 806.75 1082.7 827.36 1080.17 820.59 1171.29 801.27 1173.34 806.75"/><path class="cls-12" d="M1139.18,791a1.95,1.95,0,0,0,3.88.11,2,2,0,0,0-3.88-.11Z"/><path class="cls-12" d="M1129.74,788.86a1.83,1.83,0,0,0,1.31,2.32,1.81,1.81,0,0,0,2.39-1.15,2,2,0,0,0-3.7-1.17Z"/><path class="cls-12" d="M1121.05,784.58a1.95,1.95,0,0,0,3.39,1.89,2,2,0,0,0-3.39-1.89Z"/><line class="cls-75" x1="1002.59" y1="525.12" x2="1077.89" y2="758.19"/><line class="cls-76" x1="473.11" y1="282.91" x2="475.42" y2="308.57"/><circle class="cls-17" cx="479.06" cy="303.85" r="7.52"/><path class="cls-6" d="M1060.21,355.1a6,6,0,0,1-6,6h-7.69a25.71,25.71,0,0,1-25-19.47l-7.75-30.82,5.82-1.46,7.74,30.82a19.76,19.76,0,0,0,19.15,14.93Z"/><path class="cls-8" d="M1028.73,306.45H1070a9.67,9.67,0,0,0,8.46-5h0l-34.3-41.34h-14.56a37.33,37.33,0,0,0-37.33,37.34V326a7.08,7.08,0,0,0,7.09,7.08h1.88a15.5,15.5,0,0,0,14.84-11l2.15-7.69A10.94,10.94,0,0,1,1028.73,306.45Z"/><path class="cls-40" d="M1029.23,301.45h49.2v-4a37.33,37.33,0,0,0-37.33-37.34h-15a37.34,37.34,0,0,0-37.33,37.34v27.8a7.86,7.86,0,0,0,7.87,7.86h0a15.52,15.52,0,0,0,14.84-11l3-9.69A15.52,15.52,0,0,1,1029.23,301.45Z"/><g class="cls-77"><circle class="cls-78" cx="994.74" cy="303.19" r="13.19"/></g><path class="cls-8" d="M1256.62,464.18l17.8-5-19.94-30-12.08,3a31.62,31.62,0,0,0-21.9,39l6.53,23.31a6,6,0,0,0,7.41,4.15l4.69-1.11c5.57-1.56,7.57-6.66,7.7-12.44l.2-8.58A13.13,13.13,0,0,1,1256.62,464.18Z"/><path class="cls-7" d="M1251.58,466l40.12-11.25-.91-3.27a31.62,31.62,0,0,0-39-21.9L1239.53,433a31.61,31.61,0,0,0-21.9,39l6.36,22.68a6.66,6.66,0,0,0,8.21,4.61h0a13.13,13.13,0,0,0,9.59-12.35l.2-8.59A13.14,13.14,0,0,1,1251.58,466Z"/><g class="cls-79"><path class="cls-4" d="M1242.77,417.85h9.53a0,0,0,0,1,0,0v30.62a4.76,4.76,0,0,1-4.76,4.76h0a4.76,4.76,0,0,1-4.76-4.76V417.85a0,0,0,0,1,0,0Z" transform="translate(-70.99 348.7) rotate(-15.48)"/><path class="cls-4" d="M1229,418h9.53a0,0,0,0,1,0,0v30.62a4.76,4.76,0,0,1-4.76,4.76h0a4.76,4.76,0,0,1-4.76-4.76V418A0,0,0,0,1,1229,418Z" transform="translate(-71.53 345.03) rotate(-15.48)"/><path class="cls-4" d="M1254.46,410.21H1264a0,0,0,0,1,0,0v30.62a4.76,4.76,0,0,1-4.76,4.76h0a4.76,4.76,0,0,1-4.76-4.76V410.21a0,0,0,0,1,0,0Z" transform="translate(-68.52 351.54) rotate(-15.48)"/></g><line class="cls-72" x1="764.27" y1="308.83" x2="749.92" y2="340.97"/><path class="cls-80" d="M750.13,340.05l-.63,11.81a12.44,12.44,0,0,0,4.73,8.78l2.11,1.71a11.73,11.73,0,0,0,4.23,2.17h0a12.85,12.85,0,0,0,4,.47l13.79-.59"/><path class="cls-81" d="M777.63,283.45l-26.33,3.39a26,26,0,0,0-22.45,29.1h0a2,2,0,0,0,2.19,1.69l33.23-4.29a105.64,105.64,0,0,1,13.77-.87l20.19,0a3,3,0,0,0,2.9-3.58l-1.88-8.8A19.31,19.31,0,0,0,777.63,283.45Z"/><path class="cls-82" d="M780.65,298.07a5.38,5.38,0,0,0,6,4.65l12.78-1.65-.2-.94a19.06,19.06,0,0,0-3.92-9.37l-10,1.3a5.37,5.37,0,0,0-4.65,6Z"/><rect class="cls-82" x="744.87" y="297.74" width="3.07" height="10.93" rx="1.54" transform="translate(-32.64 97.94) rotate(-7.35)"/><rect class="cls-82" x="749.23" y="297.18" width="3.07" height="10.93" rx="1.54" transform="translate(-32.54 98.49) rotate(-7.35)"/><rect class="cls-82" x="753.58" y="296.61" width="3.07" height="10.93" rx="1.54" transform="translate(-32.43 99.04) rotate(-7.35)"/><rect class="cls-82" x="757.94" y="296.05" width="3.07" height="10.93" rx="1.54" transform="translate(-32.32 99.59) rotate(-7.35)"/><ellipse class="cls-83" cx="526.49" cy="302.02" rx="7.68" ry="9.95" transform="translate(-16.6 30.99) rotate(-3.32)"/><ellipse class="cls-83" cx="505.78" cy="303" rx="7.68" ry="9.95" transform="translate(-16.69 29.79) rotate(-3.32)"/><path class="cls-83" d="M519.42,299.44c-1-1.95-4.74-1.75-6.83-.12"/><line class="cls-83" x1="499.04" y1="300.83" x2="482.42" y2="301.73"/><line class="cls-84" x1="490.58" y1="279.33" x2="476.23" y2="311.47"/><path class="cls-76" d="M476.3,311.15l1.3,28.16a12.48,12.48,0,0,0,4.72,8.78l2.11,1.7a12,12,0,0,0,4.24,2.18h0a12.56,12.56,0,0,0,4.05.46l25.86-1.5"/><path class="cls-5" d="M535.21,285.66c1.42-2.33-.15-6.42-.61-7.19l-4.7-4.62a44.62,44.62,0,0,0-61.25-15.16l-6.26,3.78c-4.47,2.7-7.91,8-9.27,12.94-1.59,5.78,3.22,5.15,3.22,5.15l-.92.35c-1.79.54-1,2.44-.53,4.26.91,3.54,3.37,6.81,6,10.11a3.55,3.55,0,0,0,5.44.2l6.76-7.53a5.6,5.6,0,0,1,4.55-1.84l48.92,3.46C530,289.81,533.42,288.6,535.21,285.66Z"/><path class="cls-6" d="M534.36,280.7a3,3,0,0,0-.3-3.21l-5.18-7.36a44.62,44.62,0,0,0-62.17-10.8l-6,4.21c-4.27,3-7.32,8.54-8.33,13.56-1.19,5.87,2.73,5.17,2.73,5.17l1.7.35c-1.75.67-2.16,2.17-1.57,3.95a28.43,28.43,0,0,0,6.25,9.8,3.54,3.54,0,0,0,5.43-.18l6.22-8a5.58,5.58,0,0,1,4.41-2.15h49A8.2,8.2,0,0,0,534.36,280.7Z"/><path class="cls-5" d="M474.28,266.65a.62.62,0,0,0-.37,1.11c2,1.54,6.66,3.41,12.23,4.79,5.91,1.46,11.16,1.95,13.5,1.38a.62.62,0,0,0,.19-1.13C493.54,269,482.92,266.34,474.28,266.65Z"/><path class="cls-5" d="M493.73,261.38a.63.63,0,0,0-.52,1c1.34,1.66,4.75,3.94,9,5.87,4.54,2.06,8.72,3.14,10.75,2.89a.64.64,0,0,0,.38-1C509,265.81,500.86,262.11,493.73,261.38Z"/><polygon class="cls-5" points="455.06 284.88 455.06 282.26 473.88 285.35 455.06 284.88"/><path class="cls-21" d="M554.66,842.33h0a8.17,8.17,0,0,0,9.77,6.17l32.32-7.3a8.17,8.17,0,0,0,6.17-9.78h0a8.17,8.17,0,0,0-9.77-6.17l-32.32,7.3A8.17,8.17,0,0,0,554.66,842.33Zm11.63.68a3.31,3.31,0,1,1,1.87-3A3.32,3.32,0,0,1,566.29,843Zm14-3.15a3.32,3.32,0,1,1,1.87-3A3.33,3.33,0,0,1,580.24,839.86Zm14-3.15a3.32,3.32,0,1,1,1.87-3A3.33,3.33,0,0,1,594.19,836.71Z"/></svg>