<?xml version="1.0" encoding="UTF-8" standalone="no"?>
<svg width="18px" height="18px" viewBox="0 0 18 18" version="1.1" xmlns="http://www.w3.org/2000/svg" xmlns:xlink="http://www.w3.org/1999/xlink" xmlns:sketch="http://www.bohemiancoding.com/sketch/ns">
    <!-- Generator: Sketch 3.3.3 (12081) - http://www.bohemiancoding.com/sketch -->
    <title>Imported Layers</title>
    <desc>Created with Sketch.</desc>
    <defs></defs>
    <g id="Page-1" stroke="none" stroke-width="1" fill="none" fill-rule="evenodd" sketch:type="MSPage">
        <path d="M9,0 C4.0295,0 0,4.0295 0,9 C0,13.97075 4.0295,18 9,18 C13.9705,18 18,13.97075 18,9 C18,4.0295 13.9705,0 9,0 L9,0 Z M5.83075,9.72475 L3.901,7.7945 C3.2265,7.12025 3.2265,6.027 3.901,5.35325 L5.22625,4.028 C5.9005,3.3535 6.99325,3.3535 7.6675,4.028 L9.598,5.95775 C10.2395,6.59975 10.26875,7.6205 9.6885,8.29875 L8.76125,7.37125 C8.8415,7.2095 8.81725,7.008 8.68175,6.8735 L6.75175,4.9435 C6.5835,4.775 6.31,4.775 6.14175,4.9435 L4.8165,6.26875 C4.64825,6.43675 4.64825,6.7105 4.8165,6.879 L6.7465,8.809 C6.87775,8.9405 7.0725,8.96775 7.232,8.894 L8.162,9.82425 C7.48375,10.3955 6.4695,10.3635 5.83075,9.72475 L5.83075,9.72475 Z M11.3965,10.61725 C11.64925,10.87 11.6495,11.28025 11.3965,11.53275 C11.14375,11.78575 10.73375,11.78525 10.48075,11.53275 L6.53125,7.583 C6.27875,7.33025 6.27875,6.9205 6.5315,6.6675 C6.78475,6.415 7.194,6.41475 7.447,6.6675 L11.3965,10.61725 L11.3965,10.61725 Z M14.0855,12.88675 L12.75975,14.21225 C12.0855,14.88625 10.9925,14.88625 10.3185,14.21225 L8.3885,12.28225 C7.7495,11.64325 7.717,10.629 8.2885,9.951 L9.21875,10.881 C9.14525,11.04075 9.1725,11.2355 9.304,11.3665 L11.23375,13.2965 C11.402,13.465 11.67575,13.465 11.8445,13.2965 L13.16975,11.97125 C13.338,11.80325 13.338,11.52925 13.16975,11.361 L11.23975,9.431 C11.105,9.296 10.9035,9.271 10.74175,9.35225 L9.81425,8.4245 C10.49275,7.84425 11.5135,7.87375 12.15525,8.51525 L14.0855,10.4455 C14.75925,11.11975 14.75925,12.2125 14.0855,12.88675 L14.0855,12.88675 Z" id="Imported-Layers" fill="#32465A" sketch:type="MSShapeGroup"></path>
    </g>
</svg>