<svg id="Layer_1" data-name="Layer 1" xmlns="http://www.w3.org/2000/svg" viewBox="0 0 396.25 255.66"><defs><style>.cls-1{fill:#371f38;}.cls-2{fill:#ff6469;}.cls-3{fill:#51d9ae;}.cls-4{fill:#1bc18a;}</style></defs><rect class="cls-1" x="324.22" y="170.86" width="6.34" height="83.86" transform="translate(654.78 425.58) rotate(-180)"/><polygon class="cls-2" points="324.23 173.74 328.12 173.8 329.87 138.21 321.35 138.07 324.23 173.74"/><polyline class="cls-2" points="328.12 173.8 314.89 139.93 304.65 145.2 324.23 173.74"/><polyline class="cls-2" points="327.81 173.07 299.45 150.54 293.38 158.76 324.33 174.82"/><polyline class="cls-2" points="327.2 172.56 291.77 165.71 290.46 174.21 324.9 175.73"/><polyline class="cls-2" points="328.89 175.85 364.49 170.13 361.61 158.89 329.79 172.03"/><polyline class="cls-2" points="329.67 175.7 357.58 152.61 350.95 144.84 328.73 171.89"/><polyline class="cls-2" points="330.29 175.21 344.58 141.75 336.65 138.62 327.73 172.26"/><ellipse class="cls-2" cx="326.86" cy="172.46" rx="10.03" ry="10.14"/><path class="cls-3" d="M300.24,191.65c12.92,4.28,15.73,4.58,26.53,23.19C317.25,221.68,301.64,211.43,300.24,191.65Z"/><path class="cls-3" d="M329.13,205.2s9.89.29,16.77-5.65S354,183.69,354,183.69s-9.9-.28-16.77,5.65S329.13,205.2,329.13,205.2Z"/><rect class="cls-1" x="192.08" y="170.86" width="6.34" height="83.86"/><polygon class="cls-2" points="198.41 173.74 194.53 173.8 192.78 138.21 201.29 138.07 198.41 173.74"/><polyline class="cls-2" points="194.53 173.8 207.75 139.93 217.99 145.2 198.41 173.74"/><polyline class="cls-2" points="194.84 173.07 223.19 150.54 229.26 158.76 198.31 174.82"/><polyline class="cls-2" points="195.44 172.56 230.87 165.71 232.19 174.21 197.74 175.73"/><polyline class="cls-2" points="193.75 175.85 158.15 170.13 161.03 158.89 192.85 172.03"/><polyline class="cls-2" points="192.97 175.7 165.07 152.61 171.7 144.84 193.91 171.89"/><polyline class="cls-2" points="192.35 175.21 178.06 141.75 185.99 138.62 194.91 172.26"/><ellipse class="cls-2" cx="195.79" cy="172.46" rx="10.03" ry="10.14"/><path class="cls-3" d="M193.51,205.2s-9.89.29-16.76-5.65-8.13-15.86-8.13-15.86,9.89-.28,16.76,5.65S193.51,205.2,193.51,205.2Z"/><path class="cls-3" d="M218.26,200.45s.29,9.9-5.65,16.77-15.85,8.13-15.85,8.13-.29-9.89,5.65-16.77S218.26,200.45,218.26,200.45Z"/><rect class="cls-1" x="256.6" y="108.05" width="6.81" height="146.66" transform="translate(520.01 362.77) rotate(-180)"/><polygon class="cls-2" points="256.61 111.15 260.78 111.22 262.66 72.99 253.51 72.85 256.61 111.15"/><polyline class="cls-2" points="260.78 111.22 246.59 74.85 235.59 80.51 256.61 111.15"/><polyline class="cls-2" points="260.45 110.43 230.01 86.24 223.49 95.07 256.72 112.31"/><polyline class="cls-2" points="259.8 109.88 221.76 102.52 220.35 111.65 257.33 113.28"/><polyline class="cls-2" points="261.62 113.41 299.84 107.28 296.75 95.2 262.58 109.31"/><polyline class="cls-2" points="262.45 113.25 292.41 88.46 285.29 80.12 261.44 109.17"/><polyline class="cls-2" points="263.12 112.73 278.46 76.8 269.95 73.44 260.37 109.56"/><ellipse class="cls-2" cx="259.43" cy="109.77" rx="10.77" ry="10.88"/><path class="cls-3" d="M230.85,130.37c13.87,4.6,16.89,4.93,28.49,24.9C249.11,162.62,232.36,151.62,230.85,130.37Z"/><path class="cls-4" d="M261.87,144.92s10.62.31,18-6.06,8.73-17,8.73-17-10.62-.31-18,6.06S261.87,144.92,261.87,144.92Z"/><path class="cls-3" d="M77.12,255.66h53.06l5.52-7.91-9.45-1.4,2.22-9.86-9.28,2.27-1.68-10-8.28,6-.14,0-5.55-9-5.47,8.84-.16,0-8.12-5.9-1.68,10-9.28-2.27,2.22,9.86-9.45,1.4Z"/><circle class="cls-2" cx="68.16" cy="72.73" r="9.89"/><circle class="cls-2" cx="100.64" cy="5.05" r="5.05"/><circle class="cls-2" cx="61.11" cy="33.84" r="5.05"/><circle class="cls-2" cx="132.25" cy="34.8" r="5.05"/><circle class="cls-2" cx="91.24" cy="37.83" r="6.13"/><circle class="cls-2" cx="359.59" cy="48.65" r="5.05"/><circle class="cls-2" cx="374.04" cy="68.44" r="2.81"/><circle class="cls-2" cx="386.75" cy="49.76" r="3.54"/><circle class="cls-2" cx="391.19" cy="78.39" r="5.05"/><path class="cls-1" d="M35.31,238.42H33v-15.3a10.34,10.34,0,0,1,10.33-10.33h.22v2.27h-.22a8.07,8.07,0,0,0-8.06,8.06Z"/><path class="cls-1" d="M35.31,222.42H33V209a9.21,9.21,0,0,1,9.2-9.2h.2v2.27h-.2A6.94,6.94,0,0,0,35.31,209Z"/><path class="cls-1" d="M35.14,228.84H32.87v-15.3a8.06,8.06,0,0,0-8-8.06H24.6v-2.27h.22a10.33,10.33,0,0,1,10.32,10.33Z"/><path class="cls-1" d="M35.11,241.85H32.84V226.54a8.06,8.06,0,0,0-8.05-8h-.22v-2.27h.22a10.33,10.33,0,0,1,10.32,10.32Z"/><rect class="cls-1" x="32.23" y="193.23" width="2.27" height="16.95"/><path class="cls-2" d="M33.61,193.79a2,2,0,0,1-1.93-1.62,3.7,3.7,0,0,0-2.16-2l-.28-.08a2,2,0,1,1,1.06-3.79l.27.08a7.36,7.36,0,0,1,5,5.12,2,2,0,0,1-1.94,2.31"/><path class="cls-2" d="M26.64,206.08a2.25,2.25,0,0,1-2.84-.55,4.23,4.23,0,0,0-3.3-.83l-.32.08a2.26,2.26,0,0,1-1.05-4.39l.32-.07a8.43,8.43,0,0,1,7.85,2.36,2.27,2.27,0,0,1-.33,3.18,1.9,1.9,0,0,1-.33.22"/><path class="cls-2" d="M26,218.77a2,2,0,0,1-2.61-.24,3.77,3.77,0,0,0-3-.46l-.29.1a2,2,0,0,1-1.33-3.87l.28-.1a7.64,7.64,0,0,1,7.29,1.45,2,2,0,0,1,0,2.89,1.23,1.23,0,0,1-.28.23"/><path class="cls-2" d="M40.41,202.25a1.73,1.73,0,0,0,2.19-.43,3.19,3.19,0,0,1,2.53-.63l.25.06a1.74,1.74,0,1,0,.8-3.38l-.24-.06a6.5,6.5,0,0,0-6,1.82,1.72,1.72,0,0,0,.25,2.44,1.44,1.44,0,0,0,.25.18"/><path class="cls-2" d="M42.46,215a1.89,1.89,0,0,0,2.42-.22,3.49,3.49,0,0,1,2.83-.43l.26.09a1.9,1.9,0,0,0,1.24-3.59l-.27-.09a7.1,7.1,0,0,0-6.76,1.34,1.91,1.91,0,0,0,0,2.69,1.33,1.33,0,0,0,.26.21"/><path class="cls-4" d="M30.35,255.22c0-17.59,15.46-42.51,37.5-42.51,0,0-28.52,17.59-28.52,42.51Z"/><path class="cls-4" d="M39.33,255.22c0-12.2,8.46-29.48,27-29.48,0,0-19.77,12.2-19.77,29.48Z"/><path class="cls-4" d="M45.81,255.22c0-6.62,6.67-16,16.74-16,0,0-10.74,6.62-10.74,16Z"/><path class="cls-4" d="M36,255.22c0-17.59-11.8-37-33.84-37,0,0,24.85,12.09,24.85,37Z"/><path class="cls-4" d="M27,255.22c0-12.2-8.46-29.48-27-29.48,0,0,19.78,12.2,19.78,29.48Z"/><path class="cls-4" d="M20.54,255.22c0-6.62-6.66-16-16.74-16,0,0,10.74,6.62,10.74,16Z"/></svg>