<svg width="400" height="400" viewBox="0 0 400 400" fill="none" xmlns="http://www.w3.org/2000/svg">
<circle cx="200" cy="200" r="200" fill="#22323D"/>
<path fill-rule="evenodd" clip-rule="evenodd" d="M187.494 81.9945C157.497 85.4494 132.042 98.4519 111.609 120.756C99.3641 134.123 89.9421 151.702 85.2731 169.89C82.2165 181.799 81.361 188.574 81.3772 200.762C81.4294 241.964 102.482 279.634 137.763 301.65C150.844 309.814 168.447 316.081 184.201 318.185C194.71 319.589 215.545 318.702 225.012 316.449C241.156 312.606 252.596 307.673 265.839 298.841C275.693 292.271 289.535 278.767 296.377 269.049C312.108 246.706 320.239 217.086 317.784 191.069C315.257 164.308 306.022 142.084 289.245 122.399C264.649 93.5375 224.769 77.7016 187.494 81.9945ZM222.437 93.2452C268.758 103.442 302.335 140.7 308.218 188.433C310.458 206.603 306.709 229.002 298.506 246.452C285.478 274.169 262.349 294.802 233.866 304.113C221.065 308.298 213.345 309.518 199.632 309.523C170.954 309.533 145.115 299.202 124.326 279.415C107.703 263.593 96.9961 243.398 92.0953 218.621C90.1923 208.995 90.3747 189.493 92.4602 179.722C97.6111 155.586 107.523 137.527 124.681 121.017C134.709 111.367 145.073 104.518 157.361 99.4198C167.68 95.1395 174.948 93.2703 189.333 91.1995C190.547 91.0246 196.671 91.0127 202.943 91.1729C211.407 91.3892 216.43 91.923 222.437 93.2452ZM192.276 124.752C180.238 126.076 167.713 130.507 158.673 136.639C153.996 139.811 153.115 141.475 154.534 144.46C156.042 147.631 159.179 147.556 164.37 144.224C175.484 137.09 186.244 134.03 200 134.092C207.388 134.125 210.579 134.499 216.235 135.996C243.9 143.317 263.326 166.649 265.891 195.633C266.937 207.469 263.25 222.653 256.61 233.854C252.631 240.565 252.196 242.807 254.437 245.056C257.857 248.488 260.969 246.049 266.304 235.757C272.705 223.409 275.289 212.822 275.207 199.285C275.089 180.044 268.109 162.744 254.671 148.387C241.675 134.503 225.977 126.796 206.5 124.737C202.723 124.337 199.136 124.05 198.529 124.098C197.922 124.146 195.108 124.441 192.276 124.752ZM138.781 155.914C137.54 156.886 132.604 164.889 130.925 168.649C128.666 173.711 125.762 183.329 124.929 188.517C123.515 197.308 124.366 212.204 126.745 220.325C135.273 249.436 158.085 269.965 187.814 275.281C193.955 276.379 206.243 276.251 212.625 275.022C223.32 272.963 238.466 266.492 243.408 261.871C245.404 260.005 245.317 256.525 243.238 255.064C241.038 253.517 239.059 253.625 236.414 255.435C232.311 258.244 224.675 261.85 218.391 263.948C212.51 265.911 211.393 266.035 199.632 266.035C187.908 266.035 186.735 265.906 180.874 263.965C160.754 257.305 145.817 243.671 138.389 225.186C134.876 216.441 133.819 210.707 133.819 200.393C133.819 186.971 136.572 176.873 143.356 165.413C146.698 159.769 146.898 158.546 144.828 156.468C143.158 154.792 140.522 154.55 138.781 155.914ZM190.634 174.847C185.888 176.615 183.521 178.277 179.475 182.682C174.527 188.069 173.188 191.751 173.167 200.039C173.151 206.496 173.344 207.464 175.54 211.942C178.375 217.719 182.992 222.255 188.837 225.005C192.388 226.676 194 226.969 199.632 226.969C205.264 226.969 206.877 226.676 210.428 225.005C216.007 222.38 220.591 217.997 223.621 212.39C225.983 208.019 226.115 207.384 226.115 200.393C226.115 193.726 225.906 192.584 223.963 188.613C221.286 183.14 216.324 178.209 211.035 175.765C205.489 173.202 196.177 172.783 190.634 174.847ZM206.989 184.496C213.291 187.246 216.928 192.998 216.903 200.179C216.883 206.007 215.16 209.966 211.14 213.419C203.735 219.78 192.268 218.835 186.126 211.358C180.713 204.768 181.094 194.491 186.98 188.334C192.464 182.595 199.526 181.241 206.989 184.496Z" fill="white"/>
</svg>
