<svg width="400" height="400" viewBox="0 0 400 400" fill="none" xmlns="http://www.w3.org/2000/svg">
<circle cx="200" cy="200" r="200" fill="#51B4E5"/>
<path fill-rule="evenodd" clip-rule="evenodd" d="M165.675 82.6461C164.571 83.7483 163.667 85.4425 163.667 86.411C163.667 87.646 168.24 92.7576 179.021 103.57L194.376 118.97V154.518C194.376 174.07 194.228 190.066 194.048 190.066C193.869 190.066 186.959 186.175 178.694 181.419C170.429 176.662 156.847 168.858 148.51 164.077C140.173 159.295 132.95 154.861 132.459 154.223C131.968 153.587 130.46 148.743 129.11 143.461C123.209 120.386 121.112 113.379 119.824 112.434C116.543 110.027 111.488 112.402 111.514 116.339C111.52 117.326 113.69 126.175 116.337 136.004C118.983 145.832 121.148 154.016 121.148 154.19C121.148 154.364 120.35 154.679 119.376 154.89C109.964 156.931 83.4435 164.527 82.3687 165.49C79.5317 168.034 81.7781 174.346 85.5183 174.341C86.2765 174.34 90.2623 173.431 94.3765 172.319C113.429 167.174 125.372 164.123 126.466 164.123C127.123 164.123 132.485 166.895 138.381 170.282C161.392 183.503 186.34 197.878 190.069 200.066L193.982 202.362L194.187 241.188L194.391 280.015L179.029 295.422C168.243 306.241 163.667 311.354 163.667 312.589C163.667 313.558 164.571 315.252 165.675 316.354C167.233 317.91 168.159 318.244 169.809 317.846C171.122 317.529 177.211 312.085 185.72 303.622L199.505 289.913L213.279 303.625C221.799 312.106 227.864 317.532 229.179 317.848C230.827 318.244 231.755 317.909 233.312 316.354C234.416 315.252 235.32 313.558 235.32 312.589C235.32 311.354 230.747 306.242 219.966 295.43L204.612 280.03V244.398C204.612 216.211 204.817 208.846 205.596 209.149C207.121 209.744 265.555 243.53 266.247 244.216C266.855 244.821 270.059 256.291 274.804 274.852C277.405 285.024 278.899 287.549 282.319 287.549C284.67 287.549 287.288 284.918 287.288 282.557C287.288 281.54 285.166 272.785 282.571 263.099C279.976 253.414 277.85 245.265 277.847 244.99C277.843 244.715 282.003 243.365 287.092 241.99C318.966 233.376 317.997 233.764 317.997 229.617C317.997 227.3 315.369 224.655 313.076 224.662C312.102 224.665 303.509 226.742 293.981 229.277C269.7 235.738 272.533 235.467 266.288 231.922C257.133 226.724 208.257 198.568 206.383 197.412L204.612 196.319V157.645V118.97L219.966 103.57C230.747 92.7576 235.32 87.646 235.32 86.411C235.32 85.4425 234.416 83.7483 233.312 82.6461C231.754 81.0903 230.828 80.7562 229.179 81.154C227.866 81.4708 221.776 86.9149 213.268 95.3778L199.483 109.087L185.709 95.3754C177.188 86.8937 171.124 81.4685 169.809 81.1524C168.161 80.7562 167.233 81.0911 165.675 82.6461ZM279.101 112.475C278.168 113.156 276.399 118.35 273.812 128.001C271.674 135.978 269.19 145.235 268.292 148.571L266.658 154.638L243.819 167.782C228.231 176.752 220.712 181.513 220.135 182.776C218.93 185.418 220.279 188.683 222.966 189.626C225.509 190.519 224.951 190.797 251.856 175.164C261.6 169.502 270.329 164.674 271.253 164.434C272.177 164.194 278.555 165.485 285.426 167.303C292.297 169.119 301.539 171.519 305.963 172.636L314.009 174.666L316.002 172.795C318.128 170.801 318.491 168.874 317.197 166.457C316.283 164.755 312.783 163.6 292.21 158.217C284.306 156.149 277.84 154.167 277.84 153.812C277.84 153.458 279.966 145.243 282.564 135.557C285.162 125.871 287.288 117.035 287.288 115.923C287.288 112.322 282.229 110.191 279.101 112.475ZM160.911 215.527C153.982 219.541 143.53 225.582 137.683 228.951L127.053 235.076L121.542 233.672C118.51 232.9 109.657 230.555 101.869 228.463C94.082 226.369 86.7844 224.657 85.6529 224.657C81.5301 224.657 79.4175 230.161 82.3978 233.137C83.171 233.909 88.2206 235.701 93.6182 237.119C119.413 243.892 121.286 244.488 120.914 245.801C117.502 257.852 111.541 281.333 111.524 282.785C111.499 284.946 114.243 287.549 116.546 287.549C119.566 287.549 121.578 284.26 123.772 275.737C124.938 271.208 127.243 262.372 128.894 256.103L131.895 244.704L135.38 242.48C137.297 241.257 147.718 235.167 158.539 228.948C169.36 222.728 178.661 217.027 179.208 216.28C179.755 215.534 180.203 214.131 180.203 213.164C180.203 211.241 176.806 208.123 174.781 208.189C174.082 208.211 167.84 211.514 160.911 215.527Z" fill="white"/>
</svg>
