<svg width="400" height="400" viewBox="0 0 400 400" fill="none" xmlns="http://www.w3.org/2000/svg">
<circle cx="200" cy="200" r="200" fill="#78D6B1"/>
<path fill-rule="evenodd" clip-rule="evenodd" d="M110.904 82.4843C100.111 85.8227 90.1568 94.2153 85.3666 104.013C79.5779 115.853 79.5933 129.158 85.4098 141.52C88.461 148.006 90.4641 150.167 133.221 193.125C158.742 218.765 178.775 238.195 180.014 238.506C183.443 239.368 187.003 237.179 187.305 234.023C187.52 231.778 186.57 230.256 181.677 225.004C178.44 221.529 174.675 216.453 173.309 213.723C171.122 209.349 170.827 207.739 170.827 200.185C170.827 187.964 172.842 184.196 187.338 169.306C193.516 162.959 199.05 157.766 199.637 157.766C201.615 157.766 224.033 181.528 226.063 185.776C228.862 191.63 229.88 198.091 228.995 204.366C227.437 215.404 227.412 215.434 182.631 260.389C135.038 308.168 136.569 306.981 122.618 306.971C116.199 306.966 114.156 306.58 110.003 304.584C98.492 299.052 92.9214 289.945 92.8953 276.618C92.8727 265.055 94.5173 262.49 115.689 241.064C131.661 224.898 133.699 222.505 133.628 219.996C133.582 218.396 132.836 216.625 131.912 215.924C127.891 212.871 126.569 213.812 106.819 233.801C85.7324 255.141 83.5085 258.378 81.5396 270.582C78.8408 287.315 86.4335 304.184 100.541 312.797C110.42 318.828 122.333 320.78 132.724 318.069C144.171 315.083 143.917 315.299 190.315 268.861C238.908 220.223 237.569 221.881 240.466 206.824L241.932 199.211L270.676 227.902C286.486 243.682 300.728 258.623 302.328 261.105C308.38 270.498 308.902 280.521 303.87 290.76C298.59 301.5 289.55 306.884 276.706 306.936C264.501 306.987 262.102 305.473 240.413 284.029C221.008 264.843 219.074 263.583 215.933 268.075C212.788 272.572 213.527 273.656 232.774 292.748C242.972 302.865 252.983 311.982 255.463 313.411C271.885 322.879 291.226 320.797 305.292 308.047C320.015 294.703 323.057 271.519 312.279 254.788C310.68 252.306 286.569 227.373 258.699 199.382L208.027 148.491L233.131 123.445C259.45 97.1864 261.713 95.4057 271.734 93.0637C283.036 90.4229 295.664 96.0646 302.349 106.741C306.364 113.155 307.629 117.797 307.188 124.498C306.486 135.168 304.042 138.804 283.876 159.159C269.641 173.528 265.893 177.806 265.893 179.687C265.893 182.445 269.025 185.744 271.644 185.744C273.941 185.744 308.202 151.875 312.27 145.582C316.925 138.379 318.535 132.384 318.473 122.49C318.412 112.852 317.029 107.962 312.24 100.455C300.411 81.9166 277.32 75.7767 256.882 85.7379C253.983 87.1503 240.469 100.076 209.468 131.088C169.809 170.76 165.876 174.963 163.398 180.329C160.388 186.848 158.799 192.495 158.446 197.928L158.211 201.538L128.745 172.033C112.537 155.805 98.3361 140.981 97.1845 139.091C93.8613 133.634 92.7448 129.325 92.7826 122.1C92.8106 116.682 93.2873 114.405 95.2192 110.453C99.6724 101.343 107.531 95.2144 117.833 92.8164C123.179 91.5718 130.331 92.69 136.585 95.7496C138.663 96.7658 148.043 105.304 158.73 115.907C178.179 135.2 179.924 136.389 183.303 132.649C184.123 131.741 184.794 129.736 184.794 128.193C184.794 125.746 182.481 123.072 166.79 107.376C148.346 88.9265 144.383 85.8236 135.427 82.8218C129.264 80.7559 117.035 80.5871 110.904 82.4843Z" fill="white"/>
</svg>
