<svg width="400" height="400" viewBox="0 0 400 400" fill="none" xmlns="http://www.w3.org/2000/svg">
<circle cx="200" cy="200" r="200" fill="#EE6F6E"/>
<path fill-rule="evenodd" clip-rule="evenodd" d="M243.406 112.722C232.47 113.787 219.737 118.638 213.189 124.232C209.448 127.428 208.966 129.623 211.494 131.962C213.842 134.136 216.507 133.882 220.676 131.086C230.01 124.829 242.739 121.495 254.366 122.263C287.904 124.477 311.429 149.025 307.227 177.424C305.409 189.711 298.987 204.258 290.197 216.002C280.382 229.115 256.469 251.954 238.133 265.726C225.964 274.867 201.797 291.443 200.64 291.443C198.524 291.443 163.875 266.724 149.587 255.02C101.395 215.547 83.6941 178.69 99.1032 149.903C111.29 127.136 144.652 116.401 168.962 127.426C180.401 132.613 189.891 144.428 192.739 157.026C194.06 162.872 195.786 165.091 199.007 165.091C202.664 165.091 204.321 162.696 203.75 158.233C201.785 142.872 189.77 126.552 175.218 119.475C157.639 110.926 137.234 111.1 117.84 119.962C88.003 133.598 75.9272 162.525 87.1156 193.56C97.5548 222.517 124.335 251.036 174.032 286.12C189.179 296.814 198.878 303 200.496 303C203.273 303 235.834 280.697 252.36 267.475C276.68 248.018 296.531 227.043 306.237 210.547C310.757 202.868 315.103 192.267 316.729 184.963C318.432 177.309 318.422 165.006 316.707 157.924C312.016 138.547 295.761 122.728 273.475 115.849C267.236 113.923 253.417 111.663 250.204 112.042C249.746 112.096 246.687 112.402 243.406 112.722Z" fill="white"/>
</svg>
