<?xml version="1.0" encoding="UTF-8" standalone="no"?>
<svg width="28px" height="28px" viewBox="0 0 28 28" version="1.1" xmlns="http://www.w3.org/2000/svg" xmlns:xlink="http://www.w3.org/1999/xlink" xmlns:sketch="http://www.bohemiancoding.com/sketch/ns">
    <!-- Generator: Sketch 3.3.3 (12081) - http://www.bohemiancoding.com/sketch -->
    <title>Powered by Xero</title>
    <desc>Created with Sketch.</desc>
    <defs></defs>
    <g id="Page-1" stroke="none" stroke-width="1" fill="none" fill-rule="evenodd" sketch:type="MSPage">
        <g id="Powered-by-Xero" sketch:type="MSLayerGroup" fill="#FFF">
            <path d="M12.3047273,11.6938182 C11.2458182,11.6938182 10.3549091,12.4218182 10.1054545,13.4043636 L10.1054545,13.44 L14.5090909,13.44 C14.2749091,12.4370909 13.3738182,11.6938182 12.3047273,11.6938182 Z M21.6821818,11.704 C20.44,11.704 19.432,12.712 19.432,13.9541818 C19.432,15.1963636 20.44,16.2043636 21.6821818,16.2043636 C22.9243636,16.2043636 23.9323636,15.1963636 23.9323636,13.9541818 C23.9374545,12.712 22.9243636,11.704 21.6821818,11.704 Z M14,0 C6.26690909,0 0,6.26690909 0,14 C0,21.7330909 6.26690909,28 14,28 C21.7330909,28 28,21.7330909 28,14 C28,6.26690909 21.7330909,0 14,0 Z M8.78690909,17.08 C8.66981818,17.08 8.56290909,17.0341818 8.47636364,16.9476364 L6.09381818,14.5650909 L3.70109091,16.9578182 C3.61963636,17.0392727 3.51272727,17.0850909 3.40072727,17.0850909 C3.16654545,17.0850909 2.97309091,16.8916364 2.97309091,16.6574545 C2.97309091,16.5403636 3.01890909,16.4334545 3.10036364,16.352 L5.488,13.9592727 L3.10036364,11.5716364 C3.01890909,11.4901818 2.97309091,11.3832727 2.97309091,11.2661818 C2.97309091,11.032 3.16654545,10.8385455 3.40072727,10.8385455 C3.51272727,10.8385455 3.61963636,10.8843636 3.70109091,10.9607273 L6.09890909,13.3483636 C6.09890909,13.3483636 8.48654545,10.9658182 8.48654545,10.9607273 C8.568,10.8792727 8.67490909,10.8334545 8.792,10.8334545 C9.02618182,10.8334545 9.21963636,11.0269091 9.21963636,11.2610909 C9.21963636,11.3730909 9.17381818,11.48 9.09745455,11.5614545 L6.70981818,13.9541818 L9.09745455,16.3469091 C9.17890909,16.4283636 9.21963636,16.5352727 9.21963636,16.6472727 C9.21454545,16.8865455 9.02618182,17.08 8.78690909,17.08 L8.78690909,17.08 Z M14.5345455,14.3003636 L10.0647273,14.3003636 C10.0647273,14.3207273 10.0698182,14.3410909 10.0698182,14.3665455 C10.0901818,14.4887273 10.1258182,14.6109091 10.1665455,14.728 C10.4058182,15.3490909 11.0676364,16.2196364 12.3149091,16.2298182 C12.6967273,16.2298182 13.0530909,16.1330909 13.3687273,15.9650909 C13.6130909,15.8276364 13.8218182,15.6494545 13.9898182,15.4661818 C14.0458182,15.4 14.0967273,15.3338182 14.1374545,15.2727273 C14.3461818,15.0029091 14.6109091,15.0538182 14.7687273,15.176 C14.9570909,15.3185455 14.9876364,15.6189091 14.8196364,15.8327273 C14.8145455,15.8378182 14.8094545,15.8429091 14.8043636,15.848 C14.56,16.1585455 14.3054545,16.4130909 14,16.6065455 C13.7098182,16.7949091 13.3890909,16.9272727 13.0632727,17.0087273 C12.6814545,17.1054545 12.3149091,17.1309091 11.9330909,17.0850909 C10.6552727,16.9272727 9.58618182,15.9854545 9.27054545,14.7381818 C9.20945455,14.4887273 9.17890909,14.2341818 9.17890909,13.9796364 C9.17890909,12.9767273 9.66254545,11.9992727 10.5025455,11.4036364 C11.5309091,10.6705455 12.936,10.6349091 14,11.312 C14.728,11.7701818 15.2065455,12.488 15.3898182,13.3636364 C15.4763636,13.8523636 15.1454545,14.2850909 14.5345455,14.3003636 L14.5345455,14.3003636 Z M18.1389091,11.7294545 C17.2123636,11.8465455 17.1105455,12.2843636 17.1105455,13.3687273 L17.1105455,16.6167273 C17.1105455,16.8509091 16.9170909,17.0443636 16.6829091,17.0443636 C16.4487273,17.0443636 16.2552727,16.8509091 16.2552727,16.6167273 L16.2552727,11.3323636 C16.2552727,11.0981818 16.4436364,10.9098182 16.6778182,10.9098182 C16.8814545,10.9098182 17.0545455,11.0523636 17.0952727,11.2458182 C17.416,11.0014545 17.7927273,10.8741818 18.1898182,10.8741818 L18.3221818,10.8741818 C18.5563636,10.8741818 18.7498182,11.0676364 18.7498182,11.3018182 C18.7498182,11.536 18.5716364,11.7141818 18.3170909,11.7192727 C18.3170909,11.7192727 18.2254545,11.7141818 18.1389091,11.7294545 L18.1389091,11.7294545 Z M21.6821818,17.0952727 C19.9512727,17.0952727 18.5461818,15.6850909 18.5461818,13.9592727 C18.5461818,12.2283636 19.9563636,10.8181818 21.6821818,10.8181818 C23.4130909,10.8181818 24.8232727,12.2283636 24.8232727,13.9592727 C24.8232727,15.6850909 23.4130909,17.0952727 21.6821818,17.0952727 Z M21.6821818,14.7330909 C21.2545455,14.7330909 20.9032727,14.3818182 20.9032727,13.9541818 C20.9032727,13.5265455 21.2494545,13.1752727 21.6821818,13.1752727 C22.1098182,13.1752727 22.4610909,13.5265455 22.4610909,13.9541818 C22.4610909,14.3869091 22.1149091,14.7330909 21.6821818,14.7330909 Z" id="Xero-logo-Copy" sketch:type="MSShapeGroup"></path>
        </g>
    </g>
</svg>