<svg xmlns="http://www.w3.org/2000/svg" viewBox="0 0 16 17.5"><path fill="#AAB9C8" d="M15.6 3.1c-.2-.2-.5-.4-.9-.4h-1.2v-.9c0-.4-.2-.8-.5-1.1-.3-.3-.7-.5-1.1-.5h-.6c-.4 0-.8.2-1.1.5-.2.3-.4.7-.4 1.1v.9H6.2v-.9c0-.4-.2-.8-.5-1.1C5.4.4 5 .3 4.6.3H4c-.4 0-.8.2-1.1.5s-.4.6-.4 1v.9H1.2c-.3 0-.6.1-.9.4S0 3.6 0 4v12.3c0 .3.1.6.4.9.2.2.5.4.9.4h13.5c.3 0 .6-.1.9-.4.2-.2.4-.5.4-.9V4c-.1-.4-.2-.7-.5-.9zM4 16.3H1.2v-2.8H4v2.8zm0-3.4H1.2V9.8H4v3.1zm0-3.7H1.2V6.4H4v2.8zm-.2-4.4c-.1-.1-.1-.1-.1-.2V1.8c0-.1 0-.2.1-.2s.1-.1.2-.1h.6c.1 0 .2 0 .2.1s.1.1.1.2v2.8c0 .1 0 .2-.1.2 0 .1-.1.1-.2.1H4c-.1 0-.2 0-.2-.1zm3.9 11.5H4.6v-2.8h3.1v2.8zm0-3.4H4.6V9.8h3.1v3.1zm0-3.7H4.6V6.4h3.1v2.8zm3.7 7.1H8.3v-2.8h3.1v2.8zm0-3.4H8.3V9.8h3.1v3.1zm0-3.7H8.3V6.4h3.1v2.8zm-.2-4.4c-.1-.1-.1-.1-.1-.2V1.8c0-.1 0-.2.1-.2.1-.1.1-.1.2-.1h.6c.1 0 .2 0 .2.1s.1.1.1.2v2.8c0 .1 0 .2-.1.2-.1.1-.1.1-.2.1h-.6c-.1 0-.2 0-.2-.1zm3.6 11.5H12v-2.8h2.8v2.8zm0-3.4H12V9.8h2.8v3.1zm0-3.7H12V6.4h2.8v2.8z"/></svg>