<?xml version="1.0" encoding="utf-8"?>
<!-- Generator: Adobe Illustrator 19.1.0, SVG Export Plug-In . SVG Version: 6.00 Build 0)  -->
<svg version="1.1" id="Layer_1" xmlns:sketch="http://www.bohemiancoding.com/sketch/ns"
	 xmlns="http://www.w3.org/2000/svg" xmlns:xlink="http://www.w3.org/1999/xlink" x="0px" y="0px" viewBox="-142 143 15 15"
	 style="enable-background:new -142 143 15 15;" xml:space="preserve">
<style type="text/css">
	.st0{fill:none;}
	.st1{fill:#AAB9C8;}
</style>
<title>search</title>
<desc>Created with Sketch.</desc>
<g>
	<circle class="st0" cx="-135.5" cy="149.4" r="4"/>
	<path class="st1" d="M-127.7,155.8l-2.8-2.8l-0.1-0.1c0.7-1,1.1-2.2,1.1-3.5c0-3.3-2.7-6-6-6c-3.3,0-6,2.7-6,6s2.7,6,6,6
		c1.3,0,2.5-0.4,3.5-1.1l0.1,0.1l2.8,2.8l0.7,0.7l1.4-1.4L-127.7,155.8z M-135.5,153.4c-2.2,0-4-1.8-4-4c0-2.2,1.8-4,4-4
		c2.2,0,4,1.8,4,4C-131.5,151.6-133.3,153.4-135.5,153.4z"/>
</g>
</svg>
