<?xml version="1.0" encoding="utf-8"?>
<!-- Generator: Adobe Illustrator 17.1.0, SVG Export Plug-In . SVG Version: 6.00 Build 0)  -->
<!DOCTYPE svg PUBLIC "-//W3C//DTD SVG 1.1//EN" "http://www.w3.org/Graphics/SVG/1.1/DTD/svg11.dtd">
<svg version="1.1" xmlns="http://www.w3.org/2000/svg" xmlns:xlink="http://www.w3.org/1999/xlink" x="0px" y="0px"
	 viewBox="0 0 18 18" enable-background="new 0 0 18 18" xml:space="preserve">
<g id="Radio_x5F_current" display="none">
	<g id="radio">
	</g>
	<g id="radio-focus">
	</g>
	<g id="radioed">
	</g>
	<g id="radioed-focus">
	</g>
</g>
<g id="Check_x5F_current" display="none">
	<g id="check_1_" display="inline">
	</g>
	<g id="check-focus">
	</g>
	<g id="checked">
	</g>
	<g id="checked-focus">
	</g>
	<g id="checked-disabled">
	</g>
	<g id="dash">
	</g>
</g>
<g id="Check_x5F_new">
	<g id="check">
	</g>
	<g id="check-focus_1_">
		<g>
			<path fill="#FFFFFF" d="M5,15.5c-1.4,0-2.5-1.1-2.5-2.5V5c0-1.4,1.1-2.5,2.5-2.5h8c1.4,0,2.5,1.1,2.5,2.5v8
				c0,1.4-1.1,2.5-2.5,2.5H5z"/>
			<path fill="#8296AA" d="M13,3c1.1,0,2,0.9,2,2v8c0,1.1-0.9,2-2,2H5c-1.1,0-2-0.9-2-2V5c0-1.1,0.9-2,2-2H13 M13,2H5
				C3.4,2,2,3.3,2,5v8c0,1.6,1.4,3,3,3h8c1.6,0,3-1.4,3-3V5C16,3.3,14.6,2,13,2L13,2z"/>
		</g>
	</g>
	<g id="checked_1_">
	</g>
	<g id="checked-focus_1_">
	</g>
	<g id="checked-disabled_1_">
	</g>
</g>
<g id="Radio_x5F_new">
	<g id="radio_1_">
	</g>
	<g id="radio-focus_1_">
	</g>
	<g id="radioed_1_">
	</g>
	<g id="radioed-focus_1_">
	</g>
</g>
</svg>
