<?xml version="1.0" encoding="utf-8"?>
<!-- Generator: Adobe Illustrator 17.1.0, SVG Export Plug-In . SVG Version: 6.00 Build 0)  -->
<!DOCTYPE svg PUBLIC "-//W3C//DTD SVG 1.1//EN" "http://www.w3.org/Graphics/SVG/1.1/DTD/svg11.dtd">
<svg version="1.1" xmlns="http://www.w3.org/2000/svg" xmlns:xlink="http://www.w3.org/1999/xlink" x="0px" y="0px"
	 viewBox="0 0 18 18" enable-background="new 0 0 18 18" xml:space="preserve">
<g id="Radio_x5F_current" display="none">
	<g id="radio">
	</g>
	<g id="radio-focus">
	</g>
	<g id="radioed">
	</g>
	<g id="radioed-focus">
	</g>
</g>
<g id="Check_x5F_current" display="none">
	<g id="check_1_" display="inline">
	</g>
	<g id="check-focus">
	</g>
	<g id="checked">
	</g>
	<g id="checked-focus">
	</g>
	<g id="checked-disabled">
	</g>
	<g id="dash">
	</g>
</g>
<g id="Check_x5F_new">
	<g id="check">
	</g>
	<g id="check-focus_1_">
	</g>
	<g id="checked_1_">
		<g>
			<path fill="#2BAAED" d="M13,16H5c-1.7,0-3-1.4-3-3V5c0-1.7,1.3-3,3-3h8c1.6,0,3,1.3,3,3v8C16,14.6,14.6,16,13,16z"/>
		</g>
		<path display="none" fill="#FFFFFF" d="M4.6,9.4C4.4,9.2,4.4,9,4.6,8.8l1-1.1c0.2-0.2,0.4-0.2,0.6,0l1.6,1.8
			c0.2,0.2,0.4,0.2,0.6,0l4.5-4.9c0.2-0.2,0.4-0.2,0.6,0l1,1.1c0.2,0.2,0.2,0.4,0,0.6L9,12.2c-0.2,0.2-0.5,0.3-0.7,0.3H7.8
			c-0.2,0-0.5-0.1-0.7-0.3L4.6,9.4z"/>
		<g>
			<g opacity="0.2">
				<path d="M5.2,10.7c-0.1-0.1-0.1-0.3,0-0.5L6,9.5c0.1-0.1,0.3-0.1,0.4,0l1.2,1.3c0.1,0.1,0.3,0.1,0.4,0l3.4-3.7
					c0.1-0.1,0.3-0.1,0.4,0l0.8,0.8c0.1,0.1,0.1,0.3,0,0.5l-4.1,4.5C8.4,13,8.2,13.1,8,13.1H7.7c-0.2,0-0.4-0.1-0.5-0.2L5.2,10.7z"
					/>
			</g>
			<g>
				<path fill="#FFFFFF" d="M5.2,9.7c-0.1-0.1-0.1-0.3,0-0.5L6,8.5c0.1-0.1,0.3-0.1,0.4,0l1.2,1.3c0.1,0.1,0.3,0.1,0.4,0l3.4-3.7
					c0.1-0.1,0.3-0.1,0.4,0l0.8,0.8c0.1,0.1,0.1,0.3,0,0.5l-4.1,4.5C8.4,12,8.2,12.1,8,12.1H7.7c-0.2,0-0.4-0.1-0.5-0.2L5.2,9.7z"/>
			</g>
		</g>
		<path display="none" fill="#00ADEE" d="M4.6,9.4C4.4,9.2,4.4,9,4.6,8.8l1-1.1c0.2-0.2,0.4-0.2,0.6,0l1.6,1.8
			c0.2,0.2,0.4,0.2,0.6,0l4.5-4.9c0.2-0.2,0.4-0.2,0.6,0l1,1.1c0.2,0.2,0.2,0.4,0,0.6L9,12.2c-0.2,0.2-0.5,0.3-0.7,0.3H7.8
			c-0.2,0-0.5-0.1-0.7-0.3L4.6,9.4z"/>
		<polygon display="none" fill="#FFFFFF" points="4,9 6,7 8,9 12,5 14,7 8,13 		"/>
	</g>
	<g id="checked-focus_1_">
	</g>
	<g id="checked-disabled_1_">
	</g>
</g>
<g id="Radio_x5F_new">
	<g id="radio_1_">
	</g>
	<g id="radio-focus_1_">
	</g>
	<g id="radioed_1_">
	</g>
	<g id="radioed-focus_1_">
	</g>
</g>
</svg>
