<?xml version="1.0" encoding="utf-8"?>
<!-- Generator: Adobe Illustrator 17.1.0, SVG Export Plug-In . SVG Version: 6.00 Build 0)  -->
<!DOCTYPE svg PUBLIC "-//W3C//DTD SVG 1.1//EN" "http://www.w3.org/Graphics/SVG/1.1/DTD/svg11.dtd">
<svg version="1.1" xmlns="http://www.w3.org/2000/svg" xmlns:xlink="http://www.w3.org/1999/xlink" x="0px" y="0px"
	 viewBox="0 0 18 18" enable-background="new 0 0 18 18" xml:space="preserve">
<g id="Radio_x5F_current" display="none">
	<g id="radio">
	</g>
	<g id="radio-focus">
	</g>
	<g id="radioed">
	</g>
	<g id="radioed-focus">
	</g>
</g>
<g id="Check_x5F_current" display="none">
	<g id="check_1_" display="inline">
	</g>
	<g id="check-focus">
	</g>
	<g id="checked">
	</g>
	<g id="checked-focus">
	</g>
	<g id="checked-disabled">
	</g>
	<g id="dash">
	</g>
</g>
<g id="Check_x5F_new">
	<g id="check">
	</g>
	<g id="check-focus_1_">
	</g>
	<g id="checked_1_">
	</g>
	<g id="checked-focus_1_">
		<g>
			<path fill="#2BAAED" d="M5,16.5c-1.9,0-3.5-1.6-3.5-3.5V5c0-1.9,1.6-3.5,3.5-3.5h8c1.9,0,3.5,1.6,3.5,3.5v8
				c0,1.9-1.6,3.5-3.5,3.5H5z"/>
			<g>
				<path fill="#2D87BA" d="M13,2c1.6,0,3,1.3,3,3v8c0,1.7-1.4,3-3,3H5c-1.6,0-3-1.3-3-3V5c0-1.7,1.4-3,3-3H13 M13,1H5
					C2.8,1,1,2.8,1,5v8c0,2.2,1.8,4,4,4h8c2.2,0,4-1.8,4-4V5C17,2.8,15.2,1,13,1L13,1z"/>
			</g>
		</g>
		<g>
			<g opacity="0.2">
				<path d="M5.2,10.7c-0.1-0.1-0.1-0.3,0-0.5L6,9.5c0.1-0.1,0.3-0.1,0.4,0l1.2,1.3c0.1,0.1,0.3,0.1,0.4,0l3.4-3.7
					c0.1-0.1,0.3-0.1,0.4,0l0.8,0.8c0.1,0.1,0.1,0.3,0,0.5l-4.1,4.5C8.4,13,8.2,13.1,8,13.1H7.7c-0.2,0-0.4-0.1-0.5-0.2L5.2,10.7z"
					/>
			</g>
			<g>
				<path fill="#FFFFFF" d="M5.2,9.7c-0.1-0.1-0.1-0.3,0-0.5L6,8.5c0.1-0.1,0.3-0.1,0.4,0l1.2,1.3c0.1,0.1,0.3,0.1,0.4,0l3.4-3.7
					c0.1-0.1,0.3-0.1,0.4,0l0.8,0.8c0.1,0.1,0.1,0.3,0,0.5l-4.1,4.5C8.4,12,8.2,12.1,8,12.1H7.7c-0.2,0-0.4-0.1-0.5-0.2L5.2,9.7z"/>
			</g>
		</g>
	</g>
	<g id="checked-disabled_1_">
	</g>
</g>
<g id="Radio_x5F_new">
	<g id="radio_1_">
	</g>
	<g id="radio-focus_1_">
	</g>
	<g id="radioed_1_">
	</g>
	<g id="radioed-focus_1_">
	</g>
</g>
</svg>
