<?xml version="1.0" encoding="utf-8"?>
<!-- Generator: Adobe Illustrator 17.1.0, SVG Export Plug-In . SVG Version: 6.00 Build 0)  -->
<!DOCTYPE svg PUBLIC "-//W3C//DTD SVG 1.1//EN" "http://www.w3.org/Graphics/SVG/1.1/DTD/svg11.dtd">
<svg version="1.1" xmlns="http://www.w3.org/2000/svg" xmlns:xlink="http://www.w3.org/1999/xlink" x="0px" y="0px"
	 viewBox="0 0 18 18" enable-background="new 0 0 18 18" xml:space="preserve">
<g id="Radio_x5F_current" display="none">
	<g id="radio">
	</g>
	<g id="radio-focus">
	</g>
	<g id="radioed">
	</g>
	<g id="radioed-focus">
	</g>
</g>
<g id="Check_x5F_current" display="none">
	<g id="check_1_" display="inline">
	</g>
	<g id="check-focus">
	</g>
	<g id="checked">
	</g>
	<g id="checked-focus">
	</g>
	<g id="checked-disabled">
	</g>
	<g id="dash">
	</g>
</g>
<g id="Check_x5F_new">
	<g id="check">
	</g>
	<g id="check-focus_1_">
	</g>
	<g id="checked_1_">
	</g>
	<g id="checked-focus_1_">
	</g>
	<g id="checked-disabled_1_">
	</g>
</g>
<g id="Radio_x5F_new">
	<g id="radio_1_">
		<g>
			<path fill="#FFFFFF" d="M9,15.5c-3.6,0-6.5-2.9-6.5-6.5S5.4,2.5,9,2.5s6.5,2.9,6.5,6.5S12.6,15.5,9,15.5z"/>
			<path fill="#8296AA" d="M9,3c3.3,0,6,2.7,6,6s-2.7,6-6,6s-6-2.7-6-6S5.7,3,9,3 M9,2C5.1,2,2,5.1,2,9s3.1,7,7,7s7-3.1,7-7
				S12.9,2,9,2L9,2z"/>
		</g>
	</g>
	<g id="radio-focus_1_">
	</g>
	<g id="radioed_1_">
	</g>
	<g id="radioed-focus_1_">
	</g>
</g>
</svg>
