<?xml version="1.0" encoding="utf-8"?>
<!-- Generator: Adobe Illustrator 17.1.0, SVG Export Plug-In . SVG Version: 6.00 Build 0)  -->
<!DOCTYPE svg PUBLIC "-//W3C//DTD SVG 1.1//EN" "http://www.w3.org/Graphics/SVG/1.1/DTD/svg11.dtd">
<svg version="1.1" xmlns="http://www.w3.org/2000/svg" xmlns:xlink="http://www.w3.org/1999/xlink" x="0px" y="0px"
	 viewBox="0 0 18 18" enable-background="new 0 0 18 18" xml:space="preserve">
<g id="Radio_x5F_current" display="none">
	<g id="radio">
	</g>
	<g id="radio-focus">
	</g>
	<g id="radioed">
	</g>
	<g id="radioed-focus">
	</g>
</g>
<g id="Check_x5F_current" display="none">
	<g id="check_1_" display="inline">
	</g>
	<g id="check-focus">
	</g>
	<g id="checked">
	</g>
	<g id="checked-focus">
	</g>
	<g id="checked-disabled">
	</g>
	<g id="dash">
	</g>
</g>
<g id="Check_x5F_new">
	<g id="check">
	</g>
	<g id="check-focus_1_">
	</g>
	<g id="checked_1_">
	</g>
	<g id="checked-focus_1_">
	</g>
	<g id="checked-disabled_1_">
	</g>
</g>
<g id="Radio_x5F_new">
	<g id="radio_1_">
	</g>
	<g id="radio-focus_1_">
	</g>
	<g id="radioed_1_">
	</g>
	<g id="radioed-focus_1_">
		<g>
			<path fill="#2BAAED" d="M9,16.5c-4.1,0-7.5-3.4-7.5-7.5S4.9,1.5,9,1.5s7.5,3.4,7.5,7.5S13.1,16.5,9,16.5z"/>
			<path fill="#2D87BA" d="M9,2c3.9,0,7,3.1,7,7s-3.1,7-7,7s-7-3.1-7-7S5.1,2,9,2 M9,1C4.6,1,1,4.6,1,9s3.6,8,8,8s8-3.6,8-8
				S13.4,1,9,1L9,1z"/>
		</g>
		<g>
			<g opacity="0.2">
				<circle cx="9" cy="10" r="3"/>
			</g>
			<g>
				<circle fill="#FFFFFF" cx="9" cy="9" r="3"/>
			</g>
		</g>
	</g>
</g>
</svg>
